<svg width="24" height="24" viewBox="0 0 24 24" fill="none" xmlns="http://www.w3.org/2000/svg">
<g clip-path="url(#clip0_601_212)">
<path fill-rule="evenodd" clip-rule="evenodd" d="M4.84071 19.1596C4.62973 18.9486 4.5112 18.6625 4.5112 18.3641C4.5112 18.0658 4.62973 17.7796 4.84071 17.5686L15.6488 6.76051L9.87884 6.76051C9.58753 6.75023 9.31157 6.62727 9.10912 6.41755C8.90667 6.20782 8.79353 5.92771 8.79353 5.63621C8.79353 5.34471 8.90667 5.06459 9.10912 4.85487C9.31157 4.64515 9.58753 4.52219 9.87884 4.51191L18.3641 4.51191C18.6622 4.51209 18.9481 4.63061 19.1589 4.84141C19.3697 5.05222 19.4882 5.33808 19.4884 5.63621L19.4884 14.1215C19.4781 14.4128 19.3552 14.6888 19.1455 14.8912C18.9357 15.0937 18.6556 15.2068 18.3641 15.2068C18.0726 15.2068 17.7925 15.0937 17.5828 14.8912C17.3731 14.6888 17.2501 14.4128 17.2398 14.1215V8.3515L6.4317 19.1596C6.22072 19.3706 5.93457 19.4891 5.6362 19.4891C5.33783 19.4891 5.05168 19.3706 4.84071 19.1596Z" fill="rgb(180 83 9)"/>
</g>
<defs>
<clipPath id="clip0_601_212">
<rect width="24" height="24" fill="white"/>
</clipPath>
</defs>
</svg>
