<svg width="16" height="16" viewBox="0 0 16 16" fill="none" xmlns="http://www.w3.org/2000/svg">
<path fill-rule="evenodd" clip-rule="evenodd" d="M1.24999 8.00082C1.24999 7.80191 1.32901 7.61114 1.46966 7.47049C1.61031 7.32984 1.80108 7.25082 1.99999 7.25082L12.19 7.25082L9.46999 4.53082C9.33751 4.38865 9.26539 4.2006 9.26881 4.0063C9.27224 3.812 9.35095 3.62661 9.48837 3.4892C9.62578 3.35179 9.81116 3.27308 10.0055 3.26965C10.1998 3.26622 10.3878 3.33834 10.53 3.47082L14.53 7.47082C14.6704 7.61145 14.7493 7.80207 14.7493 8.00082C14.7493 8.19957 14.6704 8.3902 14.53 8.53082L10.53 12.5308C10.3878 12.6633 10.1998 12.7354 10.0055 12.732C9.81116 12.7286 9.62578 12.6499 9.48837 12.5124C9.35095 12.375 9.27224 12.1896 9.26881 11.9953C9.26539 11.801 9.33751 11.613 9.46999 11.4708L12.19 8.75082L1.99999 8.75082C1.80108 8.75082 1.61031 8.6718 1.46966 8.53115C1.32901 8.3905 1.24999 8.19973 1.24999 8.00082Z" fill="#111111"/>
</svg>
