<svg width="16" height="16" viewBox="0 0 16 16" fill="none" xmlns="http://www.w3.org/2000/svg">
<g clip-path="url(#clip0_2730_1899)">
<path d="M14.5 0.5H1.5C0.9475 0.5 0.5 0.9475 0.5 1.5V14.5C0.5 15.0525 0.9475 15.5 1.5 15.5H14.5C15.0525 15.5 15.5 15.0525 15.5 14.5V1.5C15.5 0.9475 15.0525 0.5 14.5 0.5Z" fill="#427687"/>
<path d="M13.7125 0.5H1.4375C1.18942 0.5018 0.952006 0.601149 0.776579 0.776576C0.601152 0.952003 0.501802 1.18942 0.500003 1.4375V13.675C0.498753 14.1925 0.917503 14.6113 1.435 14.6125H13.7C14.2175 14.6138 14.6363 14.195 14.6375 13.6775V1.4375C14.6488 0.93125 14.2463 0.51125 13.74 0.5H13.7125Z" fill="#8CAFBF"/>
<path opacity="0.5" d="M4.96245 1.6123C4.96245 1.3248 4.76245 1.2373 3.61245 1.2748C2.64995 1.3123 2.17495 1.4248 1.88745 1.7748C1.59995 2.1248 1.52495 2.8373 1.51245 3.6873C1.51245 4.2873 1.51245 4.8498 1.82495 4.8498C2.24995 4.8498 2.24995 3.8623 2.59995 3.3123C3.27495 2.2248 4.96245 1.9873 4.96245 1.6123Z" fill="#B4E1ED"/>
<path d="M2.85491 6.69398C2.56116 6.69398 2.33366 6.81273 2.17241 7.04898C2.01116 7.28648 1.93116 7.61648 1.93116 8.04023C1.93116 8.92148 2.23866 9.36273 2.85491 9.36273C3.11366 9.36273 3.42616 9.29399 3.79366 9.15399V9.85773C3.49116 9.99273 3.15491 10.0602 2.78241 10.0602C2.24741 10.0602 1.83741 9.88523 1.55366 9.53648C1.26991 9.18773 1.12866 8.68648 1.12866 8.03398C1.12866 7.62273 1.19866 7.26273 1.33741 6.95398C1.47616 6.64523 1.67616 6.40773 1.93741 6.24273C2.19866 6.07773 2.50366 5.99523 2.85491 5.99523C3.21241 5.99523 3.57116 6.08773 3.93241 6.27398L3.68116 6.95523C3.54366 6.88523 3.40491 6.82398 3.26616 6.77148C3.12741 6.71898 2.98866 6.69398 2.85491 6.69398ZM7.70491 8.02523C7.70491 8.68023 7.55866 9.18273 7.26491 9.53398C6.97116 9.88523 6.55116 10.0615 6.00366 10.0615C5.45616 10.0615 5.03616 9.88523 4.74241 9.53398C4.44866 9.18273 4.30241 8.67773 4.30241 8.01898C4.30241 7.36148 4.44991 6.85773 4.74366 6.51148C5.03741 6.16398 5.45866 5.99023 6.00866 5.99023C6.55866 5.99023 6.97741 6.16523 7.26866 6.51523C7.55991 6.86523 7.70491 7.36898 7.70491 8.02523ZM5.09741 8.02523C5.09741 8.46648 5.17366 8.80023 5.32491 9.02273C5.47616 9.24523 5.70241 9.35773 6.00366 9.35773C6.60866 9.35773 6.90991 8.91273 6.90991 8.02398C6.90991 7.13273 6.60991 6.68773 6.00866 6.68773C5.70741 6.68773 5.47991 6.80023 5.32741 7.02398C5.17366 7.25023 5.09741 7.58273 5.09741 8.02523ZM11.3862 8.02523C11.3862 8.68023 11.2399 9.18273 10.9462 9.53398C10.6524 9.88523 10.2324 10.0615 9.68491 10.0615C9.13741 10.0615 8.71741 9.88523 8.42366 9.53398C8.12991 9.18273 7.98366 8.67773 7.98366 8.01898C7.98366 7.36148 8.13116 6.85773 8.42491 6.51148C8.71866 6.16398 9.13991 5.99023 9.68991 5.99023C10.2399 5.99023 10.6587 6.16523 10.9499 6.51523C11.2412 6.86523 11.3862 7.36898 11.3862 8.02523ZM8.77866 8.02523C8.77866 8.46648 8.85491 8.80023 9.00616 9.02273C9.15741 9.24648 9.38366 9.35773 9.68491 9.35773C10.2899 9.35773 10.5912 8.91273 10.5912 8.02398C10.5912 7.13273 10.2912 6.68773 9.68991 6.68773C9.38866 6.68773 9.16116 6.80023 9.00866 7.02398C8.85616 7.25023 8.77866 7.58273 8.77866 8.02523ZM11.8287 10.0077V6.05398H12.6674V9.31523H14.1487V10.0077H11.8287Z" fill="#FAFAFA"/>
</g>
<defs>
<clipPath id="clip0_2730_1899">
<rect width="16" height="16" fill="white"/>
</clipPath>
</defs>
</svg>
