<svg width="16" height="16" viewBox="0 0 16 16" fill="none" xmlns="http://www.w3.org/2000/svg">
<g clip-path="url(#clip0_2731_226)">
<path d="M7.94995 14.85C4.46245 14.85 0.699951 12.6625 0.699951 7.8625C0.699951 3.0625 4.46245 0.875 7.94995 0.875C9.88745 0.875 11.675 1.5125 13 2.675C14.4375 3.95 15.2 5.75 15.2 7.8625C15.2 9.975 14.4375 11.7625 13 13.0375C11.675 14.2 9.87495 14.85 7.94995 14.85Z" fill="url(#paint0_radial_2731_226)"/>
<path d="M13.9362 3.70898C14.6025 4.78398 14.95 6.06398 14.95 7.48773C14.95 9.60023 14.1875 11.3877 12.75 12.6627C11.425 13.8252 9.62499 14.4752 7.69999 14.4752C5.44249 14.4752 3.06999 13.5565 1.67749 11.6077C3.02249 13.8152 5.55124 14.8502 7.94999 14.8502C9.87499 14.8502 11.675 14.2002 13 13.0377C14.4375 11.7627 15.2 9.97523 15.2 7.86273C15.2 6.27023 14.7662 4.85523 13.9362 3.70898" fill="#EB8F00"/>
<path d="M7.94995 14.85C4.46245 14.85 0.699951 12.6625 0.699951 7.8625C0.699951 3.0625 4.46245 0.875 7.94995 0.875C9.88745 0.875 11.675 1.5125 13 2.675C14.4375 3.95 15.2 5.75 15.2 7.8625C15.2 9.975 14.4375 11.7625 13 13.0375C11.675 14.2 9.87495 14.85 7.94995 14.85Z" fill="url(#paint1_radial_2731_226)"/>
<path d="M11.2175 9.8875C10.3025 9.59375 9.1913 9.4375 8.00005 9.4375C6.79005 9.4375 5.6713 9.60875 4.7413 9.90625C4.3888 10.49 4.17505 11.1662 4.17505 11.8875C4.17505 12.5 4.78755 12.8625 5.32505 12.6125C6.00005 12.3 6.98755 11.9875 8.00005 11.9875C9.01255 11.9875 10.0125 12.3 10.675 12.6125C11.2125 12.8625 11.825 12.5 11.825 11.8875C11.825 11.1587 11.5913 10.475 11.2175 9.8875Z" fill="#422B0D"/>
<path d="M11.2175 9.8874C10.4625 8.6999 9.13621 8.3999 7.99996 8.3999C6.76496 8.3999 5.46246 8.70865 4.74121 9.90615C5.67121 9.60865 6.78996 9.4374 7.99996 9.4374C9.18996 9.4374 10.3025 9.59365 11.2175 9.8874Z" fill="white"/>
<path d="M7.99243 8.2124C8.42993 8.22365 8.87118 8.26365 9.29993 8.3749C9.72993 8.4799 10.1474 8.6599 10.5137 8.9174C10.8762 9.18115 11.1812 9.52365 11.3899 9.91365C11.6024 10.2974 11.7574 10.7137 11.8349 11.1449C11.8749 11.3599 11.8962 11.5787 11.8962 11.7974C11.8999 11.9024 11.8899 12.0262 11.8587 12.1374C11.8262 12.2499 11.7687 12.3537 11.6949 12.4437C11.5474 12.6249 11.3224 12.7324 11.0937 12.7487C10.9799 12.7549 10.8649 12.7399 10.7574 12.7049C10.6487 12.6649 10.5574 12.6162 10.4599 12.5737C9.68493 12.2312 8.84618 12.0087 7.99243 11.9887C8.84743 11.9774 9.69993 12.1687 10.4974 12.4874C10.5974 12.5262 10.6974 12.5749 10.7899 12.6049C10.8862 12.6324 10.9874 12.6412 11.0849 12.6324C11.2812 12.6112 11.4687 12.5112 11.5862 12.3562C11.6449 12.2787 11.6899 12.1912 11.7124 12.0974C11.7349 12.0012 11.7399 11.9099 11.7337 11.8024C11.7249 11.5942 11.6977 11.3871 11.6524 11.1837C11.5637 10.7774 11.4024 10.3874 11.1887 10.0324C10.9787 9.67615 10.6912 9.37865 10.3549 9.15115C10.0137 8.9299 9.62868 8.77865 9.22618 8.69615C8.82493 8.60865 8.40868 8.5849 7.99243 8.5899V8.2124Z" fill="#EB8F00"/>
<path d="M8.02364 8.58746C7.60864 8.58246 7.19114 8.60621 6.78989 8.69371C6.38739 8.77621 6.00239 8.92746 5.66114 9.14871C5.32489 9.37621 5.03739 9.67371 4.82739 10.03C4.61239 10.385 4.45239 10.7737 4.36364 11.1812C4.31864 11.385 4.28989 11.5912 4.28239 11.8C4.27489 11.9075 4.28114 11.9987 4.30364 12.095C4.32739 12.1887 4.37239 12.2762 4.42989 12.3537C4.54739 12.5087 4.73489 12.6087 4.93114 12.63C5.02989 12.6387 5.12989 12.63 5.22614 12.6025C5.31864 12.5725 5.41864 12.525 5.51864 12.485C6.31489 12.1662 7.16864 11.975 8.02364 11.9862C7.16864 12.0062 6.32989 12.2287 5.55614 12.5712C5.45864 12.6137 5.36739 12.6625 5.25864 12.7025C5.15114 12.7375 5.03614 12.7525 4.92239 12.7462C4.69489 12.7312 4.46989 12.6225 4.32114 12.4412C4.24636 12.3513 4.19064 12.2471 4.15739 12.135C4.12614 12.025 4.11614 11.9012 4.11989 11.795C4.12114 11.5762 4.14239 11.3587 4.18114 11.1425C4.25989 10.7112 4.41364 10.295 4.62614 9.91121C4.83614 9.52246 5.14114 9.17871 5.50239 8.91496C5.86864 8.65746 6.28614 8.47621 6.71614 8.37246C7.14614 8.26246 7.58739 8.22121 8.02364 8.20996V8.58746Z" fill="#EB8F00"/>
<path d="M13.9362 3.70898C14.6025 4.78398 14.95 6.06398 14.95 7.48773C14.95 9.60023 14.1875 11.3877 12.75 12.6627C11.425 13.8252 9.62499 14.4752 7.69999 14.4752C5.44249 14.4752 3.06999 13.5565 1.67749 11.6077C3.02249 13.8152 5.55124 14.8502 7.94999 14.8502C9.87499 14.8502 11.675 14.2002 13 13.0377C14.4375 11.7627 15.2 9.97523 15.2 7.86273C15.2 6.27023 14.7662 4.85523 13.9362 3.70898" fill="#EB8F00"/>
<path d="M2.77365 5.73854C2.70865 5.74979 2.64115 5.73979 2.58365 5.71229C2.4699 5.65729 2.38365 5.52354 2.44865 5.34854C2.6874 4.73104 3.18115 4.21354 3.80365 3.92604C4.0349 3.81854 4.2774 3.74729 4.52615 3.71354C4.7124 3.69229 4.82115 3.80604 4.8474 3.92729C4.87615 4.06229 4.8149 4.22729 4.6399 4.28479L4.6249 4.28979C3.95115 4.52229 3.3499 4.99854 2.9774 5.59479C2.92615 5.67979 2.85115 5.72479 2.77365 5.73854ZM12.9411 5.59479C12.5686 4.99854 11.9674 4.52229 11.2936 4.28979L11.2786 4.28479C11.1036 4.22854 11.0411 4.06229 11.0711 3.92729C11.0974 3.80479 11.2074 3.69229 11.3924 3.71354C11.6399 3.74604 11.8836 3.81854 12.1149 3.92604C12.7374 4.21354 13.2311 4.73104 13.4699 5.34854C13.5349 5.52354 13.4486 5.65729 13.3349 5.71229C13.2786 5.73979 13.2111 5.74979 13.1449 5.73854C13.0674 5.72479 12.9924 5.67979 12.9411 5.59479Z" fill="#422B0D"/>
<path d="M13.9675 13.8748C13.9675 13.491 13.2737 13.1723 12.4025 13.1523L12.1337 6.58352C12.1075 6.56352 12.0812 6.53977 12.06 6.51352C12.06 6.51352 12.0525 6.50352 12.0375 6.48602C12.03 6.47727 12.0212 6.46602 12.0112 6.45227C12 6.43852 11.9887 6.42352 11.9787 6.41602L11.9012 6.33852C11.87 6.30727 11.8325 6.27352 11.7937 6.23977C11.7137 6.17227 11.6187 6.10977 11.5187 6.06602C11.4187 6.02477 11.3175 5.99977 11.2137 6.00102H11.1975L11.1612 6.00227C11.1287 6.00227 11.135 6.00477 11.125 6.00602C11.1162 6.00477 11.0812 6.01352 11.0575 6.01727C11.0075 6.02977 10.955 6.04477 10.905 6.06602C10.805 6.10977 10.2687 6.13352 10.2337 6.15477L10.1762 13.811C9.60999 13.9823 8.98999 14.2698 8.98999 14.591C8.98999 15.1148 9.96874 15.541 11.1762 15.541C12.3837 15.541 13.3625 15.1173 13.3625 14.5935C13.3625 14.541 13.35 14.491 13.3312 14.441C13.7187 14.3085 13.9675 14.1048 13.9675 13.8748Z" fill="#29B6F6"/>
<path d="M10.7975 13.3586C10.8087 13.7648 10.5637 14.1323 10.1862 14.2836C9.72748 14.4673 9.28998 14.7261 9.94498 14.8811C9.94498 14.8811 10.4387 15.1236 10.69 14.9973C10.8025 14.9411 10.7637 14.8486 10.6862 14.7648C10.6012 14.6736 10.6437 14.5261 10.765 14.4986L10.8725 14.4748C11.0046 14.4455 11.1224 14.371 11.2057 14.2643C11.2889 14.1575 11.3324 14.0252 11.3287 13.8898L11.1275 5.68609L10.7162 5.65234L10.7975 13.3586Z" fill="#81D4FA"/>
<path d="M5.86007 13.8113L5.80382 6.17004C5.74257 6.14254 5.63757 6.50379 5.62257 6.48504C5.61507 6.47629 5.60632 6.46504 5.59632 6.45129C5.58507 6.43754 5.57382 6.42254 5.56382 6.41504L5.48632 6.33754C5.45507 6.30629 5.41757 6.27254 5.37882 6.23879C5.29882 6.17129 5.20382 6.10879 5.10382 6.06504C5.00382 6.02379 4.90257 5.99879 4.79882 6.00004H4.78257L4.74632 6.00129C4.71382 6.00129 4.72007 6.00379 4.71007 6.00504C4.70132 6.00379 4.66632 6.01254 4.64257 6.01629C4.59257 6.02879 4.54007 6.04379 4.49007 6.06504C4.39007 6.10879 4.29507 6.17129 4.21507 6.23879C4.13632 6.30629 4.07007 6.37254 4.02507 6.42254C3.98007 6.47379 3.95382 6.50254 3.95382 6.50254L3.91632 6.54504C3.91257 6.54879 3.90882 6.55129 3.90507 6.55504L3.63507 13.1513C2.76257 13.1713 2.07007 13.4875 2.07007 13.8713C2.07007 14.1013 2.31882 14.3075 2.70507 14.4388C2.68632 14.4888 2.67382 14.54 2.67382 14.5925C2.67382 15.1163 3.65257 15.5413 4.86007 15.5413C6.06757 15.5413 7.04632 15.1138 7.04632 14.59C7.04632 14.2688 6.42507 13.9825 5.86007 13.8113Z" fill="#29B6F6"/>
<path d="M4.40621 6.14272L4.18746 13.0502C4.18611 13.0979 4.1753 13.1449 4.15567 13.1884C4.13603 13.2318 4.10796 13.271 4.07308 13.3036C4.03819 13.3361 3.9972 13.3614 3.95246 13.378C3.90772 13.3946 3.86013 13.4022 3.81246 13.4002C3.55246 13.389 3.19621 13.419 2.90371 13.6002C2.74621 13.6977 2.68121 13.9465 2.82496 14.0852C2.98246 14.2365 3.39496 14.1052 3.60121 14.084C3.69121 14.0752 3.80996 14.084 3.83371 14.1715C3.84746 14.2215 3.81746 14.2752 3.77621 14.3052C3.73496 14.3365 3.68371 14.349 3.63371 14.364C3.55121 14.3877 3.46871 14.4165 3.40371 14.4727C3.33996 14.529 3.29871 14.619 3.32121 14.7015C3.35121 14.8077 3.46871 14.859 3.57246 14.8952C3.75496 14.9615 3.94121 15.0277 4.13496 15.0365C4.14621 14.899 3.93246 14.804 3.97496 14.6727C3.98996 14.6265 4.03371 14.5965 4.07746 14.5752C4.19496 14.5202 4.32871 14.509 4.45496 14.479C4.66246 14.4302 5.03746 14.3252 4.93996 14.0402C4.90746 13.9465 4.84121 13.8702 4.78496 13.7877C4.57371 13.4752 4.53246 13.2002 4.56996 12.8252C4.59996 12.5327 4.67496 7.90397 4.72496 6.00022C4.73746 5.54397 4.58871 5.96397 4.43996 5.97522C4.42746 5.99147 4.41871 6.12772 4.40621 6.14272Z" fill="#81D4FA"/>
<path d="M6.07495 6.80359L6.04995 6.77859L5.98745 6.71609C5.96245 6.69109 5.93745 6.67859 5.89995 6.64109C5.86245 6.61609 5.82495 6.57859 5.77495 6.55359C5.72495 6.52859 5.67495 6.49109 5.62495 6.46609C5.57495 6.44109 5.51245 6.41609 5.44995 6.39109C5.38745 6.36609 5.32495 6.35359 5.26245 6.34109C5.19995 6.32859 5.13745 6.32859 5.06245 6.32859H5.07495H4.94995C4.92495 6.32859 4.88745 6.34109 4.86245 6.34109C4.79995 6.35359 4.73745 6.36609 4.67495 6.39109C4.61245 6.41609 4.54995 6.42859 4.49995 6.46609C4.44995 6.49109 4.39995 6.51609 4.34995 6.55359C4.26245 6.61609 4.18745 6.67859 4.13745 6.71609L4.06245 6.79109L4.03745 6.81609C3.88745 6.96609 3.63745 6.96609 3.46245 6.84109C3.33745 6.74109 3.29995 6.56609 3.36245 6.44109L3.37495 6.40359C3.38745 6.37859 3.39995 6.34109 3.42495 6.30359C3.47495 6.21609 3.56245 6.09109 3.69995 5.95359C3.76245 5.89109 3.84995 5.81609 3.93745 5.75359C4.02495 5.69109 4.13745 5.62859 4.24995 5.57859C4.36245 5.52859 4.49995 5.47859 4.62495 5.45359C4.68745 5.44109 4.76245 5.42859 4.83745 5.41609C4.87495 5.41609 4.92495 5.40359 4.93745 5.40359H5.03745C5.17495 5.40359 5.31245 5.41609 5.44995 5.44109C5.58745 5.46609 5.71245 5.51609 5.82495 5.56609C5.93745 5.61609 6.04995 5.67859 6.13745 5.74109C6.23745 5.80359 6.31245 5.86609 6.37495 5.94109C6.43745 6.00359 6.49995 6.06609 6.53745 6.12859C6.56245 6.15359 6.57495 6.19109 6.59995 6.21609C6.61245 6.24109 6.63745 6.26609 6.64995 6.29109C6.68745 6.34109 6.68745 6.36609 6.69995 6.39109L6.71245 6.41609C6.79995 6.60359 6.69995 6.81609 6.48745 6.89109C6.37495 6.95359 6.18745 6.91609 6.07495 6.80359ZM11.9387 6.75859L11.9137 6.73359C11.9 6.71984 11.8687 6.68484 11.85 6.67109C11.8262 6.65109 11.7975 6.62734 11.7637 6.59984C11.7275 6.57234 11.6862 6.54234 11.6412 6.51109C11.5926 6.48031 11.5426 6.45195 11.4912 6.42609C11.4387 6.39734 11.3787 6.37734 11.3187 6.35484C11.2587 6.33359 11.195 6.32234 11.1312 6.30859C11.0675 6.29859 11.0012 6.29359 10.935 6.29359H10.9525H10.9137L10.875 6.29484C10.8425 6.29484 10.8375 6.29734 10.825 6.29859C10.805 6.29859 10.7687 6.30484 10.7375 6.30984C10.6737 6.32359 10.61 6.33484 10.55 6.35609C10.4912 6.37859 10.4312 6.39859 10.3787 6.42734C10.325 6.45484 10.275 6.48359 10.2287 6.51234C10.1387 6.57234 10.065 6.63234 10.0162 6.67734C9.9662 6.72234 9.93745 6.74984 9.93745 6.74984L9.9062 6.78109C9.75495 6.92734 9.49995 6.93609 9.33495 6.80234C9.20495 6.69609 9.17245 6.53234 9.23745 6.39609L9.2562 6.35859C9.2687 6.33484 9.2837 6.29734 9.3112 6.25359C9.36245 6.16484 9.44745 6.03984 9.58245 5.90859C9.64995 5.84359 9.7287 5.77484 9.82245 5.71234C9.9137 5.64734 10.02 5.58859 10.1375 5.53734C10.255 5.48734 10.3825 5.44359 10.5175 5.41609C10.5862 5.40359 10.65 5.39109 10.7337 5.38359C10.7725 5.37984 10.8187 5.37609 10.8387 5.37484L10.935 5.37109C11.0762 5.37359 11.2162 5.38859 11.3525 5.41484C11.4875 5.44234 11.615 5.48609 11.7325 5.53609C11.8487 5.58734 11.9562 5.64609 12.0475 5.71109C12.1412 5.77359 12.2187 5.84109 12.2862 5.90734C12.3537 5.97234 12.4075 6.03734 12.4525 6.09609C12.4737 6.12609 12.4937 6.15359 12.5125 6.17984C12.53 6.20859 12.5475 6.23484 12.5612 6.25859C12.595 6.31109 12.5975 6.33109 12.61 6.35484L12.6237 6.38609C12.7075 6.57234 12.6062 6.78359 12.3975 6.85859C12.2337 6.91734 12.05 6.87234 11.9387 6.75859Z" fill="#422B0D"/>
</g>
<defs>
<radialGradient id="paint0_radial_2731_226" cx="0" cy="0" r="1" gradientUnits="userSpaceOnUse" gradientTransform="translate(7.94995 7.8625) scale(7.12)">
<stop offset="0.5" stop-color="#FDE030"/>
<stop offset="0.919" stop-color="#F7C02B"/>
<stop offset="1" stop-color="#F4A223"/>
</radialGradient>
<radialGradient id="paint1_radial_2731_226" cx="0" cy="0" r="1" gradientUnits="userSpaceOnUse" gradientTransform="translate(7.94995 7.8625) scale(7.12)">
<stop offset="0.5" stop-color="#FDE030"/>
<stop offset="0.919" stop-color="#F7C02B"/>
<stop offset="1" stop-color="#F4A223"/>
</radialGradient>
<clipPath id="clip0_2731_226">
<rect width="16" height="16" fill="white"/>
</clipPath>
</defs>
</svg>
