<svg width="24" height="24" viewBox="0 0 24 24" fill="none" xmlns="http://www.w3.org/2000/svg">
<path fill-rule="evenodd" clip-rule="evenodd" d="M5.91561 1.57205C9.95629 1.07348 14.0429 1.07348 18.0836 1.57205C18.7263 1.65491 19.3165 1.96991 19.7431 2.45771C20.1697 2.94551 20.4032 3.57245 20.3996 4.22045V21.9001C20.3996 22.0523 20.361 22.2021 20.2874 22.3353C20.2138 22.4686 20.1076 22.581 19.9787 22.662C19.8498 22.7431 19.7025 22.7901 19.5505 22.7987C19.3985 22.8073 19.2468 22.7772 19.1096 22.7113L15.7496 21.0985L12.3896 22.7113C12.2679 22.7698 12.1346 22.8001 11.9996 22.8001C11.8646 22.8001 11.7313 22.7698 11.6096 22.7113L8.24961 21.0985L4.88961 22.7113C4.75241 22.7772 4.60071 22.8073 4.44871 22.7987C4.29672 22.7901 4.14939 22.7431 4.02051 22.662C3.89163 22.581 3.78542 22.4686 3.71181 22.3353C3.6382 22.2021 3.59959 22.0523 3.59961 21.9001V4.22045C3.59961 2.89685 4.56681 1.73885 5.91561 1.57205ZM16.5356 8.73605C16.6946 8.56544 16.7811 8.33979 16.777 8.10663C16.7729 7.87346 16.6785 7.651 16.5136 7.48611C16.3487 7.32121 16.1262 7.22676 15.893 7.22264C15.6599 7.21853 15.4342 7.30508 15.2636 7.46405L7.46361 15.2641C7.37519 15.3464 7.30426 15.4458 7.25507 15.5562C7.20588 15.6666 7.17943 15.7858 7.1773 15.9066C7.17517 16.0275 7.1974 16.1475 7.24266 16.2596C7.28793 16.3716 7.3553 16.4734 7.44076 16.5589C7.52623 16.6444 7.62803 16.7117 7.74009 16.757C7.85216 16.8023 7.97219 16.8245 8.09304 16.8224C8.21388 16.8202 8.33306 16.7938 8.44346 16.7446C8.55385 16.6954 8.65322 16.6245 8.73561 16.5361L16.5356 8.73605ZM10.7996 9.60005C10.7996 9.91831 10.6732 10.2235 10.4481 10.4486C10.2231 10.6736 9.91787 10.8001 9.59961 10.8001C9.28135 10.8001 8.97613 10.6736 8.75108 10.4486C8.52604 10.2235 8.39961 9.91831 8.39961 9.60005C8.39961 9.28179 8.52604 8.97657 8.75108 8.75153C8.97613 8.52648 9.28135 8.40005 9.59961 8.40005C9.91787 8.40005 10.2231 8.52648 10.4481 8.75153C10.6732 8.97657 10.7996 9.28179 10.7996 9.60005ZM14.3996 15.6001C14.7179 15.6001 15.0231 15.4736 15.2481 15.2486C15.4732 15.0235 15.5996 14.7183 15.5996 14.4001C15.5996 14.0818 15.4732 13.7766 15.2481 13.5515C15.0231 13.3265 14.7179 13.2001 14.3996 13.2001C14.0813 13.2001 13.7761 13.3265 13.5511 13.5515C13.326 13.7766 13.1996 14.0818 13.1996 14.4001C13.1996 14.7183 13.326 15.0235 13.5511 15.2486C13.7761 15.4736 14.0813 15.6001 14.3996 15.6001Z" fill="#357CE7"/>
</svg>
