<svg width="16" height="16" viewBox="0 0 16 16" fill="none" xmlns="http://www.w3.org/2000/svg">
<path d="M9.69994 9.89981C10.5749 10.0748 11.4249 9.98731 11.8499 9.92481C12.3249 9.86231 12.9874 9.76231 13.4999 9.52481C14.0874 9.26231 14.2374 8.81231 14.2499 8.27481C14.2624 7.77481 14.1124 7.47481 13.9374 7.31231C14.4624 7.02481 14.5874 6.68731 14.5624 6.12481C14.5374 5.62481 14.3124 5.23731 13.8624 5.01231C14.2249 4.62481 14.2999 4.32481 14.2374 3.73731C14.1874 3.18731 13.9749 2.86231 13.1124 2.61231C13.2749 2.43731 13.3249 2.13731 13.3124 1.86231C13.2874 1.53731 13.1874 1.22481 12.7374 0.999805C12.6124 0.937305 11.8749 0.574805 10.3374 1.06231C9.03744 0.837305 7.22494 0.949805 5.78744 1.6373C4.42494 1.6498 2.81244 1.7623 2.68744 1.7623C2.54994 1.7623 2.28744 1.8248 2.16244 2.1748C2.03744 2.5248 1.64994 5.1623 2.01244 6.7498C2.06244 6.9748 2.24994 7.0998 2.41244 7.1123C2.57494 7.1248 3.48744 7.2248 3.69994 7.2498C4.82494 7.3873 4.54994 8.3623 5.84994 9.9123C6.46244 10.6498 7.71244 11.1623 7.78744 12.7998C7.81244 13.3498 7.84994 14.2498 7.84994 14.3748C7.84994 15.1623 9.37494 15.3123 9.92494 14.2248C10.9124 12.2873 10.0999 11.3373 9.69994 9.89981Z" fill="#FFCA28"/>
<mask id="mask0_2731_212" style="mask-type:luminance" maskUnits="userSpaceOnUse" x="1" y="0" width="14" height="16">
<path d="M9.69994 9.89981C10.5749 10.0748 11.4249 9.98731 11.8499 9.92481C12.3249 9.86231 12.9874 9.76231 13.4999 9.52481C14.0874 9.26231 14.2374 8.81231 14.2499 8.27481C14.2624 7.77481 14.1124 7.47481 13.9374 7.31231C14.4624 7.02481 14.5874 6.68731 14.5624 6.12481C14.5374 5.62481 14.3124 5.23731 13.8624 5.01231C14.2249 4.62481 14.2999 4.32481 14.2374 3.73731C14.1874 3.18731 13.9749 2.86231 13.1124 2.61231C13.2749 2.43731 13.3249 2.13731 13.3124 1.86231C13.2874 1.53731 13.1874 1.22481 12.7374 0.999805C12.6124 0.937305 11.8749 0.574805 10.3374 1.06231C9.03744 0.837305 7.22494 0.949805 5.78744 1.6373C4.42494 1.6498 2.81244 1.7623 2.68744 1.7623C2.54994 1.7623 2.28744 1.8248 2.16244 2.1748C2.03744 2.5248 1.64994 5.1623 2.01244 6.7498C2.06244 6.9748 2.24994 7.0998 2.41244 7.1123C2.57494 7.1248 3.48744 7.2248 3.69994 7.2498C4.82494 7.3873 4.54994 8.3623 5.84994 9.9123C6.46244 10.6498 7.71244 11.1623 7.78744 12.7998C7.81244 13.3498 7.84994 14.2498 7.84994 14.3748C7.84994 15.1623 9.37494 15.3123 9.92494 14.2248C10.9124 12.2873 10.0999 11.3373 9.69994 9.89981" fill="white"/>
</mask>
<g mask="url(#mask0_2731_212)">
<path d="M2 6.97471C2.0125 6.78721 2 6.51221 2.35 6.51221C2.7 6.51221 3.5375 6.59971 3.7125 6.62471C4.05 6.66221 4.5875 6.93721 4.7875 7.37471C4.9625 7.73721 5.375 8.68721 5.375 8.68721C5.375 8.68721 6.25 11.1872 6.575 11.2247C7.0875 11.2872 8.0625 11.3997 8.0625 12.8497C8.0625 13.2997 8.1125 13.9747 8.1125 14.0997C8.15 15.0622 9.225 14.6997 9.65 14.2372L10.1 14.6122L9.3 15.3247C9.3 15.3247 7.625 15.2372 7.6375 15.2247C7.675 15.2122 2 6.97471 2 6.97471ZM2.075 2.14971L5.5125 2.02471L5.5125 1.49971L2.175 1.67471L2.075 2.14971ZM13.925 9.92471L14.8 8.34971L14.575 3.13721L12.9 0.599709L10.4 0.662208C10.4 0.662208 9.7 2.07471 9.6 2.33721C9.5 2.58721 9.225 3.08721 8.6875 3.86221C8.1625 4.63721 8.525 5.31221 8.8875 5.57471C9.1 5.72471 9.275 6.22471 9.3 6.52471C9.325 6.82471 9.425 9.11221 9.45 9.78721C9.475 10.4622 10.0875 10.6247 10.35 10.6247L13.925 9.92471ZM11.45 9.04971C11 8.99971 10.775 8.48721 10.775 7.94971C10.7875 7.04971 11.1375 7.06221 11.5125 6.98721C11.6125 6.96221 11.6625 6.79971 11.5125 6.77471C10.8625 6.71221 10.7375 6.14971 10.7375 5.71221C10.7375 4.88721 11.3375 4.81221 11.4375 4.81221C11.6 4.79971 11.65 4.59971 11.4375 4.58721C11.025 4.56221 10.775 4.14971 10.775 3.66221C10.775 3.28721 10.8875 2.89971 11.5375 2.71221C11.6125 2.68721 11.725 2.51221 11.5125 2.48721C10.95 2.39971 10.9375 2.12471 10.925 1.76221C10.925 1.34971 11.125 1.22471 11.375 1.14971C11.5875 1.09971 12.0125 1.08721 12.25 1.12471C12.825 1.22471 13.3 1.86221 12.8 2.54971L12 2.54971C11.925 2.54971 11.925 2.64971 12.025 2.64971C13.3875 2.72471 13.7875 3.21221 13.8625 3.76221C13.9125 4.16221 13.8 4.57471 13.4625 4.87471C13.4125 4.92471 13.3375 4.89971 13.25 4.89971C14.75 5.71221 14.2 6.97471 13.475 7.09971C13.3375 7.12471 13.2125 7.13721 13.3375 7.18721C14.075 7.44971 14.2625 9.49971 12.5875 9.43721C12.6125 9.43721 11.8125 9.08721 11.45 9.04971Z" fill="#FAA700"/>
</g>
<mask id="mask1_2731_212" style="mask-type:luminance" maskUnits="userSpaceOnUse" x="1" y="0" width="14" height="16">
<path d="M9.69994 9.89981C10.5749 10.0748 11.4249 9.98731 11.8499 9.92481C12.3249 9.86231 12.9874 9.76231 13.4999 9.52481C14.0874 9.26231 14.2374 8.81231 14.2499 8.27481C14.2624 7.77481 14.1124 7.47481 13.9374 7.31231C14.4624 7.02481 14.5874 6.68731 14.5624 6.12481C14.5374 5.62481 14.3124 5.23731 13.8624 5.01231C14.2249 4.62481 14.2999 4.32481 14.2374 3.73731C14.1874 3.18731 13.9749 2.86231 13.1124 2.61231C13.2749 2.43731 13.3249 2.13731 13.3124 1.86231C13.2874 1.53731 13.1874 1.22481 12.7374 0.999805C12.6124 0.937305 11.8749 0.574805 10.3374 1.06231C9.03744 0.837305 7.22494 0.949805 5.78744 1.6373C4.42494 1.6498 2.81244 1.7623 2.68744 1.7623C2.54994 1.7623 2.28744 1.8248 2.16244 2.1748C2.03744 2.5248 1.64994 5.1623 2.01244 6.7498C2.06244 6.9748 2.24994 7.0998 2.41244 7.1123C2.57494 7.1248 3.48744 7.2248 3.69994 7.2498C4.82494 7.3873 4.54994 8.3623 5.84994 9.9123C6.46244 10.6498 7.71244 11.1623 7.78744 12.7998C7.81244 13.3498 7.84994 14.2498 7.84994 14.3748C7.84994 15.1623 9.37494 15.3123 9.92494 14.2248C10.9124 12.2873 10.0999 11.3373 9.69994 9.89981" fill="white"/>
</mask>
<g mask="url(#mask1_2731_212)">
<path d="M3.9126 7.46223C4.0126 7.12473 4.4126 7.14973 4.6376 7.38723C5.1876 7.99973 5.6001 9.17473 6.1251 9.71223C6.9876 10.5997 7.9501 11.2872 7.9501 12.2122C7.9501 12.5122 8.0751 13.3122 7.6876 13.4747C7.4876 13.5622 7.3376 13.4122 7.3376 13.2997C7.3376 13.1747 7.2501 11.9872 7.2501 11.9872L3.9126 7.46223Z" fill="#B55E19"/>
<path d="M9.08755 15.1121C9.03755 14.9746 9.06255 14.8121 9.26255 14.6246C11.15 12.8746 9.17505 10.6871 9.20005 9.54961C9.21255 9.23711 9.20005 7.22461 9.17505 7.01211C8.97505 5.64961 8.17505 5.16211 7.72505 4.89961C7.66255 4.86211 7.67505 4.72461 7.77505 4.74961C7.86255 4.77461 8.77505 4.94961 9.26255 5.87461C9.30005 5.59961 9.58755 5.09961 9.82505 4.99961C9.57505 4.88711 8.88755 3.86211 10 2.93711C9.57505 2.77461 9.27505 1.94961 9.88755 1.41211C9.45005 1.27461 7.13755 1.23711 5.80005 2.11211C5.67505 2.19961 5.46255 2.17461 5.36255 2.07461C5.25005 1.97461 5.18755 1.97461 5.12505 1.98711C5.06255 1.99961 3.26255 1.91211 3.13755 1.91211C3.01255 1.91211 2.73755 1.88711 2.73755 1.71211C2.73755 1.53711 5.81255 1.51211 5.81255 1.51211L7.51255 0.762111L10.4251 0.874612C10.4251 0.874612 12.1625 0.712112 11.9375 0.762112C11.7125 0.812111 10.6125 1.06211 10.125 1.57461C9.56255 2.18711 10.05 2.58711 10.1875 2.62461C10.275 2.64961 10.375 2.67461 10.5125 2.62461C10.6625 2.57461 12.2626 2.18711 13.0376 2.54961C13.1376 2.59961 13.1 2.66211 13.0125 2.66211C11.7375 2.59961 10.65 2.81211 10.1375 3.24961C9.40005 3.88711 9.72505 4.57461 9.97505 4.72461C10.0625 4.77461 10.1625 4.76211 10.2125 4.73711C11.2125 4.31211 13.225 4.54961 13.8 4.91211C13.8625 4.94961 13.8375 5.03711 13.75 5.01211C13.5625 4.96211 10.975 4.49961 10.075 5.23711C9.45005 5.74961 9.33755 6.31211 9.75005 6.74961C9.87505 6.88711 10.1 6.84961 10.15 6.83711C11.8 6.49961 13.55 6.83711 13.8625 7.16211C13.9375 7.23711 13.9 7.33711 13.775 7.29961C13.3375 7.16211 11.5875 6.92461 10.8 7.02461C10.6 7.04961 10.4 7.07461 10.125 7.26211C9.97505 7.36211 9.80005 7.48711 9.67505 7.61211C9.55005 7.73711 9.43755 7.97461 9.48755 8.41211C9.51255 8.66211 9.65005 8.91211 10.0875 8.99961C10.3375 9.04961 10.7375 8.96211 10.85 8.93711C10.9625 8.91211 11.175 8.91211 11.3125 8.94961C11.5375 9.01211 12.2875 9.21211 12.7625 9.24961C12.9125 9.26211 12.9375 9.43711 12.75 9.44961C12.575 9.46211 11.9 9.47461 11.3875 9.34961C11.325 9.33711 11.2875 9.37461 11.325 9.41211C11.3625 9.46211 11.4625 9.53711 11.4875 9.56211C11.525 9.58711 11.5375 9.71211 11.35 9.66211C11.2375 9.63711 11.0375 9.49961 10.9375 9.36211C10.8875 9.28711 10.8 9.27461 10.75 9.27461C10.15 9.31211 9.77505 9.24961 9.57505 9.03711C9.56255 9.34961 9.61255 9.68711 9.67505 9.86211C9.71255 9.97461 10.7875 10.9871 10.7 12.7871C10.6125 14.6371 9.30005 15.6496 9.08755 15.1121Z" fill="#B55E19"/>
</g>
</svg>
