<svg width="16" height="16" viewBox="0 0 16 16" fill="none" xmlns="http://www.w3.org/2000/svg">
<path d="M11.7486 1.12109C9.00989 1.12109 8.00364 3.91984 8.00364 3.91984C8.00364 3.91984 7.01114 1.12109 4.25364 1.12109C2.18114 1.12109 -0.181361 2.76359 0.691139 6.49734C1.56364 10.2311 8.01114 14.8823 8.01114 14.8823C8.01114 14.8823 14.4349 10.2311 15.3086 6.49734C16.1811 2.76359 13.9886 1.12109 11.7486 1.12109Z" fill="#F44336"/>
<path d="M3.83124 1.39984C5.98124 1.39984 7.04874 3.71109 7.39374 4.64734C7.44249 4.78109 7.62874 4.78484 7.68499 4.65484L7.99999 3.91859C7.55624 2.50109 6.33624 1.12109 4.25374 1.12109C3.39124 1.12109 2.47999 1.40609 1.77124 2.00734C2.39749 1.59609 3.13124 1.39984 3.83124 1.39984ZM11.7487 1.12109C11.0875 1.12109 10.485 1.26484 10.015 1.55484C10.345 1.42734 10.7537 1.39984 11.1587 1.39984C13.185 1.39984 14.9987 2.93609 14.18 6.48734C13.4775 9.53609 9.37249 13.2348 8.11874 14.6461C8.03874 14.7361 8.01124 14.8811 8.01124 14.8811C8.01124 14.8811 14.435 10.2298 15.3087 6.49609C16.1812 2.76359 13.9925 1.12109 11.7487 1.12109Z" fill="#CC3333"/>
<path d="M2.13007 3.10245C2.59882 2.51745 3.43632 2.0337 4.14632 2.5912C4.53007 2.89245 4.36257 3.50995 4.01882 3.76995C3.51882 4.14995 3.08382 4.3787 2.77882 4.9737C2.59632 5.3312 2.48632 5.72245 2.43007 6.1212C2.40757 6.2787 2.20132 6.31745 2.12382 6.1787C1.59632 5.2437 1.44632 3.9562 2.13007 3.10245ZM9.64507 4.33245C9.42507 4.33245 9.27007 4.11995 9.35007 3.91495C9.49882 3.53745 9.69132 3.17245 9.92257 2.84745C10.2651 2.36745 10.9163 2.08745 11.3288 2.3787C11.7513 2.6762 11.6963 3.2712 11.4001 3.5587C10.7638 4.17495 9.96132 4.33245 9.64507 4.33245Z" fill="#FF8A80"/>
</svg>
