<svg width="24" height="24" viewBox="0 0 24 24" fill="none" xmlns="http://www.w3.org/2000/svg">
<g clip-path="url(#clip0_617_480)">
<g clip-path="url(#clip1_617_480)">
<path d="M19.7645 1.83937L19.8095 2.325C20.042 2.30062 20.4695 2.3775 21.0713 2.98125C21.6751 3.585 21.752 4.01062 21.7276 4.24312L22.2132 4.28812C22.787 4.34062 23.3063 3.83062 23.2445 3.25875C23.1863 2.72062 22.907 2.11875 22.4195 1.63125C21.932 1.14562 21.332 0.864374 20.792 0.806249C20.222 0.746249 19.712 1.26562 19.7645 1.83937Z" fill="#9E740B"/>
<path d="M16.4007 7.65189L15.0132 6.26439L19.7907 2.19939C19.7907 2.19939 20.3232 1.81501 21.2794 2.77126C22.2357 3.72751 21.8513 4.26001 21.8513 4.26001L17.7882 9.03751L16.4007 7.65189Z" fill="#693928"/>
<path d="M5.26688 21.0525C3.55125 22.71 0.75 23.1975 0.75 23.1975L15.84 8.10754L17.445 9.71254L5.26688 21.0525Z" fill="#82AEC0"/>
<path d="M2.895 18.6806C1.23937 20.3981 0.75 23.1974 0.75 23.1974L15.84 8.10744L14.235 6.50244L2.895 18.6806Z" fill="#C9E3E6"/>
<path d="M11.1507 3.86809L13.9182 7.25247C13.9182 7.25247 14.2201 7.64622 14.2294 7.97059C14.2444 8.48059 14.2707 8.82184 14.7094 9.25872C15.1482 9.69747 15.7088 9.72184 16.0088 9.71059C16.3088 9.69934 16.6932 10.0256 16.6932 10.0256L20.0776 12.7931C20.2576 12.945 20.5332 12.9168 20.6757 12.7181C20.7919 12.5568 20.7601 12.3318 20.6269 12.1837C19.8807 11.3531 17.7769 8.97559 17.7769 8.97559C17.7769 8.97559 17.4563 8.57247 17.4488 8.23872C17.4413 7.90309 17.4732 7.46247 16.9763 6.96747C16.4794 6.47247 16.1194 6.51559 15.6713 6.49872C15.2926 6.48372 14.9682 6.16684 14.9682 6.16684C14.9682 6.16684 12.5907 4.06122 11.7582 3.31684C11.6101 3.18372 11.3851 3.15184 11.2238 3.26809C11.0269 3.41247 10.9988 3.68809 11.1507 3.86809Z" fill="#9E740B"/>
<path d="M15.8682 8.11687L11.1263 3.375C11.0251 3.525 11.0307 3.72562 11.1507 3.86812L13.9182 7.2525C13.9182 7.2525 14.2201 7.64625 14.2295 7.97062C14.237 8.26125 14.2501 8.4975 14.3401 8.72812C14.4601 9.03375 14.8651 9.105 15.0995 8.87437C15.4388 8.5425 15.8682 8.11687 15.8682 8.11687Z" fill="#E2A610"/>
<path d="M15.8399 8.85562C16.2531 8.85562 16.588 8.52068 16.588 8.1075C16.588 7.69432 16.2531 7.35938 15.8399 7.35938C15.4267 7.35938 15.0918 7.69432 15.0918 8.1075C15.0918 8.52068 15.4267 8.85562 15.8399 8.85562Z" fill="#1E4EA6"/>
<path d="M15.7162 7.90316C15.66 7.99316 15.63 8.07754 15.6468 8.17879C15.6525 8.25941 15.7012 8.34754 15.645 8.42254C15.5737 8.52004 15.4181 8.49754 15.3431 8.40941C15.2362 8.28004 15.2306 8.12066 15.2512 7.98941C15.2868 7.76254 15.405 7.59191 15.6093 7.61066C15.7575 7.62379 15.7987 7.79254 15.7162 7.90316Z" fill="#42A5F5"/>
<path d="M17.5538 6.3937C17.8763 6.7162 18.1445 7.04807 18.347 7.35745C18.3826 7.33682 18.4145 7.31245 18.4445 7.28245C18.7576 6.96932 18.6132 6.31682 18.122 5.82557C17.6307 5.33432 16.9782 5.18995 16.6651 5.50307C16.6351 5.53307 16.6126 5.56495 16.5901 5.60057C16.8995 5.80307 17.2313 6.0712 17.5538 6.3937ZM18.5045 5.44495C18.7913 5.73182 19.0276 6.0262 19.202 6.3037C19.2338 6.28307 19.2657 6.26057 19.292 6.23432C19.5826 5.9437 19.4663 5.35307 19.0313 4.91807C18.5963 4.48307 18.0076 4.36682 17.7151 4.65745C17.687 4.68557 17.6645 4.71557 17.6457 4.74745C17.9213 4.92182 18.2176 5.15807 18.5045 5.44495ZM19.4532 4.49432C19.7026 4.7437 19.907 5.00245 20.057 5.2462C20.087 5.22745 20.1151 5.20682 20.1395 5.18057C20.4095 4.91057 20.3195 4.38557 19.9407 4.00495C19.562 3.62432 19.0351 3.5362 18.7651 3.8062C18.7407 3.83057 18.7182 3.8587 18.6995 3.8887C18.9451 4.04057 19.2038 4.24495 19.4532 4.49432ZM20.402 3.54557C20.6138 3.75745 20.7863 3.98057 20.912 4.19245C20.9382 4.17557 20.9645 4.15495 20.987 4.13245C21.2345 3.88495 21.1726 3.42182 20.8501 3.09932C20.5276 2.77682 20.0645 2.71495 19.817 2.96245C19.7945 2.98495 19.7738 3.0112 19.757 3.03745C19.967 3.1612 20.1901 3.3337 20.402 3.54557Z" fill="#A65F3E"/>
<path d="M21.2888 2.20126C21.0788 2.01564 20.8406 1.92376 20.67 1.88251C20.5294 1.84876 20.4225 1.73251 20.3944 1.59001V1.58814C20.3419 1.32001 20.5856 1.08751 20.8519 1.15126C21.15 1.22439 21.5006 1.38001 21.8025 1.65189C21.9769 1.80939 21.9506 2.09064 21.7594 2.22751C21.6169 2.33251 21.4219 2.31751 21.2888 2.20126Z" fill="#E2A610"/>
<path opacity="0.6" d="M4.37053 13.1943C4.1924 13.0593 4.01053 12.99 3.83053 12.9393C3.75178 12.9187 3.67303 12.9056 3.5924 12.8943C3.58115 12.8137 3.56615 12.735 3.54553 12.6562C3.49303 12.4781 3.42553 12.2962 3.29053 12.1162C3.15553 12.2943 3.08615 12.4762 3.03553 12.6562C3.0149 12.735 3.00178 12.8156 2.99053 12.8962C2.91178 12.9075 2.83115 12.9225 2.7524 12.9431C2.57428 12.9918 2.3924 13.0593 2.2124 13.1962C2.39053 13.3312 2.5724 13.4006 2.7524 13.4493C2.83115 13.4718 2.91178 13.485 2.9924 13.4981C3.00365 13.5787 3.01865 13.6575 3.03928 13.7362C3.08803 13.9143 3.15553 14.0962 3.2924 14.2762C3.4274 14.0981 3.49678 13.9162 3.54553 13.7362C3.56803 13.6575 3.58115 13.5787 3.5924 13.5C3.67303 13.4887 3.75178 13.4737 3.8324 13.4531C4.00865 13.3968 4.19053 13.3293 4.37053 13.1943ZM9.6449 18.9487C9.7424 18.9356 9.8399 18.9056 9.93928 18.8362C9.8399 18.765 9.7424 18.7368 9.6449 18.7237C9.63178 18.6262 9.60178 18.5287 9.5324 18.4293C9.46115 18.5287 9.43303 18.6262 9.4199 18.7237C9.3224 18.7368 9.2249 18.7668 9.12553 18.8362C9.22303 18.9056 9.32053 18.9356 9.4199 18.9487C9.43303 19.0462 9.46303 19.1437 9.5324 19.2431C9.60178 19.1456 9.63178 19.0481 9.6449 18.9487Z" fill="white"/>
<path d="M3.40316 16.8131C3.50066 16.8 3.59816 16.77 3.69754 16.7006C3.59816 16.6293 3.50066 16.6012 3.40316 16.5881C3.39004 16.4906 3.36004 16.3931 3.29066 16.2937C3.21941 16.3931 3.19129 16.4906 3.17816 16.5881C3.08066 16.6012 2.98316 16.6312 2.88379 16.7006C2.98316 16.77 3.08066 16.8 3.17816 16.8131C3.19129 16.9106 3.22129 17.0081 3.29066 17.1075C3.36004 17.0081 3.39004 16.9106 3.40316 16.8131ZM14.9157 18.2887C14.7225 18.1443 14.5313 18.0712 14.3382 18.0168C14.2538 17.9943 14.1675 17.9793 14.0832 17.9662C14.0717 17.8802 14.0548 17.795 14.0325 17.7112C13.9782 17.5181 13.905 17.3268 13.7607 17.1337C13.6163 17.3268 13.5432 17.5181 13.4888 17.7112C13.4663 17.7956 13.4513 17.8818 13.4382 17.9662C13.3538 17.9775 13.2675 17.9943 13.1832 18.0168C12.99 18.0712 12.7988 18.1443 12.6057 18.2887C12.7988 18.4331 12.99 18.5062 13.1832 18.5606C13.2675 18.5831 13.3538 18.5981 13.4382 18.6112C13.4494 18.6956 13.4663 18.7818 13.4888 18.8662C13.5432 19.0593 13.6163 19.2506 13.7607 19.4437C13.905 19.2506 13.9782 19.0593 14.0325 18.8662C14.055 18.7818 14.07 18.6956 14.0832 18.6112C14.1675 18.6 14.2538 18.5831 14.3382 18.5606C14.5294 18.5081 14.7225 18.4331 14.9157 18.2887Z" fill="white"/>
<path opacity="0.6" d="M16.8769 14.1656C16.7044 14.0362 16.5319 13.9706 16.3594 13.9219C16.2825 13.9012 16.2075 13.8881 16.1306 13.8769C16.1194 13.8 16.1063 13.725 16.0856 13.6481C16.0369 13.4756 15.9713 13.3031 15.8419 13.1306C15.7125 13.3031 15.6469 13.4756 15.5981 13.6481C15.5775 13.725 15.5644 13.8 15.5531 13.8769C15.4763 13.8881 15.4013 13.9012 15.3244 13.9219C15.1519 13.9706 14.9794 14.0362 14.8069 14.1656C14.9794 14.295 15.1519 14.3606 15.3244 14.4094C15.4013 14.43 15.4763 14.4431 15.5531 14.4544C15.5644 14.5312 15.5775 14.6062 15.5981 14.6831C15.6469 14.8556 15.7125 15.0281 15.8419 15.2006C15.9713 15.0281 16.0369 14.8556 16.0856 14.6831C16.1063 14.6062 16.1194 14.5312 16.1306 14.4544C16.2075 14.4431 16.2825 14.43 16.3594 14.4094C16.5319 14.3606 16.7044 14.295 16.8769 14.1656Z" fill="white"/>
<path d="M7.7926 11.3775C7.6726 11.2875 7.55635 11.2444 7.43822 11.2087C7.38572 11.1956 7.33135 11.1862 7.27885 11.1787C7.27135 11.1262 7.26197 11.0737 7.24885 11.0212C7.2151 10.9012 7.1701 10.785 7.0801 10.6669C6.9901 10.7869 6.94697 10.9031 6.91135 11.0212C6.89822 11.0737 6.88885 11.1281 6.88135 11.1806C6.83072 11.1881 6.77822 11.1975 6.72572 11.2106C6.60572 11.2444 6.48947 11.2875 6.37135 11.3756C6.49135 11.4656 6.6076 11.5087 6.72572 11.5406C6.77822 11.5537 6.83072 11.565 6.88135 11.5725C6.88885 11.625 6.89822 11.6775 6.91135 11.73C6.9451 11.85 6.98822 11.9662 7.07635 12.0844C7.16635 11.9644 7.20947 11.8481 7.24135 11.73C7.25447 11.6775 7.26572 11.625 7.27322 11.5744C7.32572 11.5669 7.3801 11.5575 7.4326 11.5425C7.55635 11.5106 7.67447 11.4656 7.7926 11.3775ZM8.84072 21.2925C8.72072 21.2025 8.60447 21.1594 8.48635 21.1237C8.43385 21.1106 8.38135 21.1012 8.32697 21.0937C8.31947 21.0412 8.3101 20.9887 8.29697 20.9344C8.26322 20.8144 8.21822 20.6981 8.12822 20.58C8.03822 20.7 7.9951 20.8162 7.95947 20.9344C7.94635 20.9887 7.93697 21.0412 7.92947 21.0956C7.87885 21.1031 7.82635 21.1125 7.77572 21.1256C7.65572 21.1594 7.53947 21.2025 7.42135 21.2906C7.54135 21.3787 7.6576 21.4219 7.77572 21.4556C7.82822 21.4706 7.88072 21.48 7.93322 21.4875C7.94072 21.54 7.9501 21.5906 7.96322 21.6431C7.99697 21.7631 8.0401 21.8794 8.12822 21.9975C8.21822 21.8775 8.26135 21.7612 8.29322 21.6431C8.30635 21.5906 8.31572 21.54 8.32322 21.4894C8.37572 21.4819 8.4301 21.4725 8.48447 21.4575C8.60447 21.4275 8.7226 21.3825 8.84072 21.2925ZM5.9476 14.2781C6.0451 14.265 6.1426 14.235 6.24197 14.1656C6.1426 14.0944 6.0451 14.0662 5.9476 14.0531C5.93447 13.9556 5.90447 13.8581 5.8351 13.7587C5.76385 13.8581 5.73572 13.9556 5.7226 14.0531C5.6251 14.0662 5.5276 14.0962 5.42822 14.1656C5.5276 14.235 5.6251 14.265 5.7226 14.2781C5.73572 14.3756 5.76572 14.4731 5.8351 14.5725C5.90447 14.475 5.93447 14.3775 5.9476 14.2781Z" fill="white"/>
</g>
</g>
<defs>
<clipPath id="clip0_617_480">
<rect width="24" height="24" fill="white"/>
</clipPath>
<clipPath id="clip1_617_480">
<rect width="24" height="24" fill="white"/>
</clipPath>
</defs>
</svg>
