<svg width="24" height="24" viewBox="0 0 24 24" fill="none" xmlns="http://www.w3.org/2000/svg">
<path d="M5 21V20H6.808V17C6.808 15.7653 7.18633 14.67 7.943 13.714C8.701 12.7587 9.671 12.1873 10.853 12C9.67033 11.8 8.70033 11.2253 7.943 10.276C7.18633 9.32667 6.808 8.23467 6.808 7V4H5V3H19V4H17.192V7C17.192 8.23467 16.8137 9.32667 16.057 10.276C15.299 11.2253 14.329 11.8 13.147 12C14.3297 12.1867 15.2997 12.758 16.057 13.714C16.8143 14.67 17.1927 15.7653 17.192 17V20H19V21H5Z" fill="rgb(180 83 9)"/>
</svg>
