<svg width="24" height="24" viewBox="0 0 24 24" fill="none" xmlns="http://www.w3.org/2000/svg">
<path d="M5.19802 3.3C5.80002 2 7.86702 2 12 2C16.133 2 18.2 2 18.802 3.3C18.854 3.41 18.897 3.527 18.932 3.646C19.342 5.033 17.88 6.641 14.958 9.856L13 12L14.958 14.143C17.88 17.359 19.341 18.967 18.932 20.353C18.8973 20.4721 18.8539 20.5884 18.802 20.701C18.2 22 16.133 22 12 22C7.86702 22 5.80002 22 5.19802 20.7C5.14629 20.588 5.10284 20.4724 5.06802 20.354C4.65802 18.967 6.12002 17.359 9.04202 14.144L11 12L9.04202 9.857C6.12002 6.64 4.66002 5.033 5.06802 3.647C5.10252 3.52789 5.14598 3.41256 5.19802 3.3Z" fill="rgb(180 83 9)"/>
</svg>
