<svg width="16" height="16" viewBox="0 0 16 16" fill="none" xmlns="http://www.w3.org/2000/svg">
<path d="M9.69994 6.1002C10.5749 5.9252 11.4249 6.0127 11.8499 6.0752C12.3249 6.1377 12.9874 6.2377 13.4999 6.4752C14.0874 6.7377 14.2374 7.1877 14.2499 7.7252C14.2624 8.2252 14.1124 8.5252 13.9374 8.6877C14.4624 8.9752 14.5874 9.3127 14.5624 9.8752C14.5374 10.3752 14.3124 10.7627 13.8624 10.9877C14.2249 11.3752 14.2999 11.6752 14.2374 12.2627C14.1874 12.8127 13.9749 13.1377 13.1124 13.3877C13.2749 13.5627 13.3249 13.8627 13.3124 14.1377C13.2874 14.4627 13.1874 14.7752 12.7374 15.0002C12.6124 15.0627 11.8749 15.4252 10.3374 14.9377C9.03744 15.1627 7.22494 15.0502 5.78744 14.3627C4.42494 14.3502 2.81244 14.2377 2.68744 14.2377C2.54994 14.2377 2.28744 14.1752 2.16244 13.8252C2.03744 13.4752 1.64994 10.8377 2.01244 9.2502C2.06244 9.0252 2.24994 8.9002 2.41244 8.8877C2.57494 8.8752 3.48744 8.7752 3.69994 8.7502C4.82494 8.6127 4.54994 7.6377 5.84994 6.0877C6.46244 5.3502 7.71244 4.8377 7.78744 3.2002C7.81244 2.6502 7.84994 1.7502 7.84994 1.6252C7.84994 0.837695 9.37494 0.687695 9.92494 1.7752C10.9124 3.7127 10.0999 4.6627 9.69994 6.1002Z" fill="#FFCA28"/>
<mask id="mask0_2730_1866" style="mask-type:luminance" maskUnits="userSpaceOnUse" x="1" y="0" width="14" height="16">
<path d="M9.69994 6.1002C10.5749 5.9252 11.4249 6.0127 11.8499 6.0752C12.3249 6.1377 12.9874 6.2377 13.4999 6.4752C14.0874 6.7377 14.2374 7.1877 14.2499 7.7252C14.2624 8.2252 14.1124 8.5252 13.9374 8.6877C14.4624 8.9752 14.5874 9.3127 14.5624 9.8752C14.5374 10.3752 14.3124 10.7627 13.8624 10.9877C14.2249 11.3752 14.2999 11.6752 14.2374 12.2627C14.1874 12.8127 13.9749 13.1377 13.1124 13.3877C13.2749 13.5627 13.3249 13.8627 13.3124 14.1377C13.2874 14.4627 13.1874 14.7752 12.7374 15.0002C12.6124 15.0627 11.8749 15.4252 10.3374 14.9377C9.03744 15.1627 7.22494 15.0502 5.78744 14.3627C4.42494 14.3502 2.81244 14.2377 2.68744 14.2377C2.54994 14.2377 2.28744 14.1752 2.16244 13.8252C2.03744 13.4752 1.64994 10.8377 2.01244 9.2502C2.06244 9.0252 2.24994 8.9002 2.41244 8.8877C2.57494 8.8752 3.48744 8.7752 3.69994 8.7502C4.82494 8.6127 4.54994 7.6377 5.84994 6.0877C6.46244 5.3502 7.71244 4.8377 7.78744 3.2002C7.81244 2.6502 7.84994 1.7502 7.84994 1.6252C7.84994 0.837695 9.37494 0.687695 9.92494 1.7752C10.9124 3.7127 10.0999 4.6627 9.69994 6.1002" fill="white"/>
</mask>
<g mask="url(#mask0_2730_1866)">
<path d="M2 9.02529C2.0125 9.21279 2 9.48779 2.35 9.48779C2.7 9.48779 3.5375 9.40029 3.7125 9.37529C4.05 9.33779 4.5875 9.06279 4.7875 8.62529C4.9625 8.26279 5.375 7.31279 5.375 7.31279C5.375 7.31279 6.25 4.81279 6.575 4.77529C7.0875 4.71279 8.0625 4.60029 8.0625 3.15029C8.0625 2.70029 8.1125 2.02529 8.1125 1.90029C8.15 0.937793 9.225 1.30029 9.65 1.76279L10.1 1.38779L9.3 0.675293C9.3 0.675293 7.625 0.762793 7.6375 0.775293C7.675 0.787793 2 9.02529 2 9.02529ZM2.075 13.8503L5.5125 13.9753V14.5003L2.175 14.3253L2.075 13.8503ZM13.925 6.07529L14.8 7.65029L14.575 12.8628L12.9 15.4003L10.4 15.3378C10.4 15.3378 9.7 13.9253 9.6 13.6628C9.5 13.4128 9.225 12.9128 8.6875 12.1378C8.1625 11.3628 8.525 10.6878 8.8875 10.4253C9.1 10.2753 9.275 9.77529 9.3 9.47529C9.325 9.17529 9.425 6.88779 9.45 6.21279C9.475 5.53779 10.0875 5.37529 10.35 5.37529L13.925 6.07529ZM11.45 6.95029C11 7.00029 10.775 7.51279 10.775 8.05029C10.7875 8.95029 11.1375 8.93779 11.5125 9.01279C11.6125 9.03779 11.6625 9.20029 11.5125 9.22529C10.8625 9.28779 10.7375 9.85029 10.7375 10.2878C10.7375 11.1128 11.3375 11.1878 11.4375 11.1878C11.6 11.2003 11.65 11.4003 11.4375 11.4128C11.025 11.4378 10.775 11.8503 10.775 12.3378C10.775 12.7128 10.8875 13.1003 11.5375 13.2878C11.6125 13.3128 11.725 13.4878 11.5125 13.5128C10.95 13.6003 10.9375 13.8753 10.925 14.2378C10.925 14.6503 11.125 14.7753 11.375 14.8503C11.5875 14.9003 12.0125 14.9128 12.25 14.8753C12.825 14.7753 13.3 14.1378 12.8 13.4503H12C11.925 13.4503 11.925 13.3503 12.025 13.3503C13.3875 13.2753 13.7875 12.7878 13.8625 12.2378C13.9125 11.8378 13.8 11.4253 13.4625 11.1253C13.4125 11.0753 13.3375 11.1003 13.25 11.1003C14.75 10.2878 14.2 9.02529 13.475 8.90029C13.3375 8.87529 13.2125 8.86279 13.3375 8.81279C14.075 8.55029 14.2625 6.50029 12.5875 6.56279C12.6125 6.56279 11.8125 6.91279 11.45 6.95029Z" fill="#FAA700"/>
</g>
<mask id="mask1_2730_1866" style="mask-type:luminance" maskUnits="userSpaceOnUse" x="1" y="0" width="14" height="16">
<path d="M9.69994 6.1002C10.5749 5.9252 11.4249 6.0127 11.8499 6.0752C12.3249 6.1377 12.9874 6.2377 13.4999 6.4752C14.0874 6.7377 14.2374 7.1877 14.2499 7.7252C14.2624 8.2252 14.1124 8.5252 13.9374 8.6877C14.4624 8.9752 14.5874 9.3127 14.5624 9.8752C14.5374 10.3752 14.3124 10.7627 13.8624 10.9877C14.2249 11.3752 14.2999 11.6752 14.2374 12.2627C14.1874 12.8127 13.9749 13.1377 13.1124 13.3877C13.2749 13.5627 13.3249 13.8627 13.3124 14.1377C13.2874 14.4627 13.1874 14.7752 12.7374 15.0002C12.6124 15.0627 11.8749 15.4252 10.3374 14.9377C9.03744 15.1627 7.22494 15.0502 5.78744 14.3627C4.42494 14.3502 2.81244 14.2377 2.68744 14.2377C2.54994 14.2377 2.28744 14.1752 2.16244 13.8252C2.03744 13.4752 1.64994 10.8377 2.01244 9.2502C2.06244 9.0252 2.24994 8.9002 2.41244 8.8877C2.57494 8.8752 3.48744 8.7752 3.69994 8.7502C4.82494 8.6127 4.54994 7.6377 5.84994 6.0877C6.46244 5.3502 7.71244 4.8377 7.78744 3.2002C7.81244 2.6502 7.84994 1.7502 7.84994 1.6252C7.84994 0.837695 9.37494 0.687695 9.92494 1.7752C10.9124 3.7127 10.0999 4.6627 9.69994 6.1002" fill="white"/>
</mask>
<g mask="url(#mask1_2730_1866)">
<path d="M3.9126 8.53777C4.0126 8.87527 4.4126 8.85027 4.6376 8.61277C5.1876 8.00027 5.6001 6.82527 6.1251 6.28777C6.9876 5.40027 7.9501 4.71277 7.9501 3.78777C7.9501 3.48777 8.0751 2.68777 7.6876 2.52527C7.4876 2.43777 7.3376 2.58777 7.3376 2.70027C7.3376 2.82527 7.2501 4.01277 7.2501 4.01277L3.9126 8.53777Z" fill="#B55E19"/>
<path d="M9.08755 0.887889C9.03755 1.02539 9.06255 1.18789 9.26255 1.37539C11.15 3.12539 9.17505 5.31289 9.20005 6.45039C9.21255 6.76289 9.20005 8.77539 9.17505 8.98789C8.97505 10.3504 8.17505 10.8379 7.72505 11.1004C7.66255 11.1379 7.67505 11.2754 7.77505 11.2504C7.86255 11.2254 8.77505 11.0504 9.26255 10.1254C9.30005 10.4004 9.58755 10.9004 9.82505 11.0004C9.57505 11.1129 8.88755 12.1379 10 13.0629C9.57505 13.2254 9.27505 14.0504 9.88755 14.5879C9.45005 14.7254 7.13755 14.7629 5.80005 13.8879C5.67505 13.8004 5.46255 13.8254 5.36255 13.9254C5.25005 14.0254 5.18755 14.0254 5.12505 14.0129C5.06255 14.0004 3.26255 14.0879 3.13755 14.0879C3.01255 14.0879 2.73755 14.1129 2.73755 14.2879C2.73755 14.4629 5.81255 14.4879 5.81255 14.4879L7.51255 15.2379L10.425 15.1254C10.425 15.1254 12.1625 15.2879 11.9375 15.2379C11.7125 15.1879 10.6125 14.9379 10.125 14.4254C9.56255 13.8129 10.05 13.4129 10.1875 13.3754C10.275 13.3504 10.375 13.3254 10.5125 13.3754C10.6625 13.4254 12.2625 13.8129 13.0375 13.4504C13.1375 13.4004 13.1 13.3379 13.0125 13.3379C11.7375 13.4004 10.65 13.1879 10.1375 12.7504C9.40005 12.1129 9.72505 11.4254 9.97505 11.2754C10.0625 11.2254 10.1625 11.2379 10.2125 11.2629C11.2125 11.6879 13.225 11.4504 13.8 11.0879C13.8625 11.0504 13.8375 10.9629 13.75 10.9879C13.5625 11.0379 10.975 11.5004 10.075 10.7629C9.45005 10.2504 9.33755 9.68789 9.75005 9.25039C9.87505 9.11289 10.1 9.15039 10.15 9.16289C11.8 9.50039 13.55 9.16289 13.8625 8.83789C13.9375 8.76289 13.9 8.66289 13.775 8.70039C13.3375 8.83789 11.5875 9.07539 10.8 8.97539C10.6 8.95039 10.4 8.92539 10.125 8.73789C9.97505 8.63789 9.80005 8.51289 9.67505 8.38789C9.55005 8.26289 9.43755 8.02539 9.48755 7.58789C9.51255 7.33789 9.65005 7.08789 10.0875 7.00039C10.3375 6.95039 10.7375 7.03789 10.85 7.06289C10.9625 7.08789 11.175 7.08789 11.3125 7.05039C11.5375 6.98789 12.2875 6.78789 12.7625 6.75039C12.9125 6.73789 12.9375 6.56289 12.75 6.55039C12.575 6.53789 11.9 6.52539 11.3875 6.65039C11.325 6.66289 11.2875 6.62539 11.325 6.58789C11.3625 6.53789 11.4625 6.46289 11.4875 6.43789C11.525 6.41289 11.5375 6.28789 11.35 6.33789C11.2375 6.36289 11.0375 6.50039 10.9375 6.63789C10.8875 6.71289 10.8 6.72539 10.75 6.72539C10.15 6.68789 9.77505 6.75039 9.57505 6.96289C9.56255 6.65039 9.61255 6.31289 9.67505 6.13789C9.71255 6.02539 10.7875 5.01289 10.7 3.21289C10.6125 1.36289 9.30005 0.350389 9.08755 0.887889Z" fill="#B55E19"/>
</g>
</svg>
