<svg width="973" height="386" viewBox="0 0 973 386" fill="none" xmlns="http://www.w3.org/2000/svg">
<path d="M14.7725 358.167C22.0768 358.167 48.8351 353.322 119.732 343.521C141.031 340.577 175.983 328.876 240.621 311.202C276.367 301.428 317.372 287.472 356.757 269.101C434.962 232.622 479.61 195.525 496.715 179.65C525.934 152.531 553.021 118.48 565.923 93.3737C573.026 79.5524 577.577 68.2304 579.412 59.6964C581.72 48.9674 578.825 38.8661 573.962 31.5433C550.907 -3.16872 470.067 25.3218 446.153 36.939C415.397 51.8804 403.924 69.3683 392.27 86.473C385.603 96.2584 381.827 113.341 383.644 135.328C386.514 170.06 419.634 194.093 446.557 210.06C466.298 221.768 499.064 236.965 570.254 249.794C619.166 258.608 695.952 258.989 755.25 255.41C855.388 249.366 909.027 222.43 931.638 210.813C940.924 206.463 945.769 205.252 949.477 202.811C953.184 200.37 955.606 196.736 958.102 192.992" stroke="#FEDA04" stroke-width="28" stroke-linecap="round"/>
<path d="M15 371.279C22.3044 371.279 49.0627 366.434 119.959 356.634C141.259 353.689 176.21 341.988 240.849 324.314C276.595 314.54 317.6 300.584 356.985 282.213C435.19 245.734 479.838 208.637 496.943 192.762C526.162 165.643 553.249 131.592 566.151 106.486C573.253 92.6647 577.805 81.3427 579.64 72.8087C581.947 62.0797 579.053 51.9784 574.189 44.6556C551.135 9.94359 470.294 38.4341 446.381 50.0513C415.625 64.9927 404.151 82.4806 392.497 99.5853C385.83 109.371 382.054 126.454 383.871 148.44C386.742 183.172 419.861 207.206 446.785 223.173C466.526 234.88 499.292 250.078 570.482 262.906C619.393 271.72 696.18 272.101 755.477 268.522C855.616 262.479 909.255 235.542 931.865 223.925C941.152 219.575 945.997 218.364 949.704 215.923C953.411 213.482 955.834 209.848 958.33 206.105" stroke="#A5EBF7" stroke-width="28" stroke-linecap="round"/>
</svg>
