<svg width="50" height="50" viewBox="0 0 50 50" fill="none" xmlns="http://www.w3.org/2000/svg">
<path d="M13.8905 15.9101C13.6678 18.2851 13.5116 22.4883 14.9139 24.2773C14.9139 24.2773 14.2538 19.6601 20.1717 13.8672C22.5546 11.5351 23.1053 8.36327 22.2733 5.98437C21.8007 4.63671 20.9374 3.52343 20.1874 2.74609C19.7499 2.28905 20.0858 1.53515 20.7225 1.56249C24.5741 1.73437 30.8163 2.80468 33.4686 9.46093C34.6327 12.3828 34.7186 15.4023 34.1639 18.4726C33.8124 20.4336 32.5624 24.793 35.4139 25.3281C37.4491 25.7109 38.4335 24.0937 38.8749 22.9297C39.0585 22.4453 39.6952 22.3242 40.0389 22.7109C43.4764 26.6211 43.7694 31.2266 43.0585 35.1914C41.6835 42.8555 33.9217 48.4336 26.2108 48.4336C16.578 48.4336 8.91003 42.9219 6.92174 32.9453C6.12096 28.918 6.52721 20.9492 12.7382 15.3242C13.1991 14.9023 13.953 15.2773 13.8905 15.9101Z" fill="url(#paint0_radial_343_908)"/>
<path d="M29.7303 30.2421C26.1795 25.6718 27.7693 20.457 28.6404 18.3788C28.7576 18.1054 28.4451 17.8476 28.199 18.0156C26.6717 19.0546 23.5427 21.4999 22.0857 24.9413C20.1131 29.5937 20.2537 31.871 21.4217 34.6523C22.1248 36.3281 21.3084 36.6835 20.8982 36.746C20.4998 36.8085 20.1326 36.5429 19.8396 36.2656C18.9968 35.4564 18.3962 34.4284 18.1052 33.2968C18.0427 33.0546 17.7263 32.9882 17.5818 33.1874C16.4881 34.6992 15.9217 37.1249 15.8943 38.8398C15.8084 44.1406 20.1873 48.4374 25.4842 48.4374C32.1599 48.4374 37.0232 41.0546 33.1873 34.8828C32.074 33.0859 31.0271 31.9101 29.7303 30.2421Z" fill="url(#paint1_radial_343_908)"/>
<defs>
<radialGradient id="paint0_radial_343_908" cx="0" cy="0" r="1" gradientUnits="userSpaceOnUse" gradientTransform="translate(24.3029 48.555) rotate(-179.751) scale(27.5733 45.2423)">
<stop offset="0.314" stop-color="#FF9800"/>
<stop offset="0.662" stop-color="#FF6D00"/>
<stop offset="0.972" stop-color="#F44336"/>
</radialGradient>
<radialGradient id="paint1_radial_343_908" cx="0" cy="0" r="1" gradientUnits="userSpaceOnUse" gradientTransform="translate(25.8513 21.1165) rotate(90.5787) scale(28.8501 21.7119)">
<stop offset="0.214" stop-color="#FFF176"/>
<stop offset="0.328" stop-color="#FFF27D"/>
<stop offset="0.487" stop-color="#FFF48F"/>
<stop offset="0.672" stop-color="#FFF7AD"/>
<stop offset="0.793" stop-color="#FFF9C4"/>
<stop offset="0.822" stop-color="#FFF8BD" stop-opacity="0.804"/>
<stop offset="0.863" stop-color="#FFF6AB" stop-opacity="0.529"/>
<stop offset="0.91" stop-color="#FFF38D" stop-opacity="0.209"/>
<stop offset="0.941" stop-color="#FFF176" stop-opacity="0"/>
</radialGradient>
</defs>
</svg>
