<svg width="32" height="32" viewBox="0 0 32 32" fill="none" xmlns="http://www.w3.org/2000/svg">
<path d="M15.8999 29.7C8.9249 29.7 1.3999 25.325 1.3999 15.725C1.3999 6.125 8.9249 1.75 15.8999 1.75C19.7749 1.75 23.3499 3.025 25.9999 5.35C28.8749 7.9 30.3999 11.5 30.3999 15.725C30.3999 19.95 28.8749 23.525 25.9999 26.075C23.3499 28.4 19.7499 29.7 15.8999 29.7Z" fill="url(#paint0_radial_2731_226)"/>
<path d="M27.8725 7.41797C29.205 9.56797 29.9 12.128 29.9 14.9755C29.9 19.2005 28.375 22.7755 25.5 25.3255C22.85 27.6505 19.25 28.9505 15.4 28.9505C10.885 28.9505 6.13998 27.113 3.35498 23.2155C6.04498 27.6305 11.1025 29.7005 15.9 29.7005C19.75 29.7005 23.35 28.4005 26 26.0755C28.875 23.5255 30.4 19.9505 30.4 15.7255C30.4 12.5405 29.5325 9.71047 27.8725 7.41797" fill="#EB8F00"/>
<path d="M15.8999 29.7C8.9249 29.7 1.3999 25.325 1.3999 15.725C1.3999 6.125 8.9249 1.75 15.8999 1.75C19.7749 1.75 23.3499 3.025 25.9999 5.35C28.8749 7.9 30.3999 11.5 30.3999 15.725C30.3999 19.95 28.8749 23.525 25.9999 26.075C23.3499 28.4 19.7499 29.7 15.8999 29.7Z" fill="url(#paint1_radial_2731_226)"/>
<path d="M22.4351 19.775C20.6051 19.1875 18.3826 18.875 16.0001 18.875C13.5801 18.875 11.3426 19.2175 9.4826 19.8125C8.7776 20.98 8.3501 22.3325 8.3501 23.775C8.3501 25 9.5751 25.725 10.6501 25.225C12.0001 24.6 13.9751 23.975 16.0001 23.975C18.0251 23.975 20.0251 24.6 21.3501 25.225C22.4251 25.725 23.6501 25 23.6501 23.775C23.6501 22.3175 23.1826 20.95 22.4351 19.775Z" fill="#422B0D"/>
<path d="M22.4349 19.7748C20.9249 17.3998 18.2724 16.7998 15.9999 16.7998C13.5299 16.7998 10.9249 17.4173 9.48242 19.8123C11.3424 19.2173 13.5799 18.8748 15.9999 18.8748C18.3799 18.8748 20.6049 19.1873 22.4349 19.7748Z" fill="white"/>
<path d="M15.9849 16.4248C16.8599 16.4473 17.7424 16.5273 18.5999 16.7498C19.4599 16.9598 20.2949 17.3198 21.0274 17.8348C21.7524 18.3623 22.3624 19.0473 22.7799 19.8273C23.2049 20.5948 23.5149 21.4273 23.6699 22.2898C23.7499 22.7198 23.7924 23.1573 23.7924 23.5948C23.7999 23.8048 23.7799 24.0523 23.7174 24.2748C23.6524 24.4998 23.5374 24.7073 23.3899 24.8873C23.0949 25.2498 22.6449 25.4648 22.1874 25.4973C21.9599 25.5098 21.7299 25.4798 21.5149 25.4098C21.2974 25.3298 21.1149 25.2323 20.9199 25.1473C19.3699 24.4623 17.6924 24.0173 15.9849 23.9773C17.6949 23.9548 19.3999 24.3373 20.9949 24.9748C21.1949 25.0523 21.3949 25.1498 21.5799 25.2098C21.7724 25.2648 21.9749 25.2823 22.1699 25.2648C22.5624 25.2223 22.9374 25.0223 23.1724 24.7123C23.2899 24.5573 23.3799 24.3823 23.4249 24.1948C23.4699 24.0023 23.4799 23.8198 23.4674 23.6048C23.4498 23.1883 23.3954 22.7742 23.3049 22.3673C23.1274 21.5548 22.8049 20.7748 22.3774 20.0648C21.9574 19.3523 21.3824 18.7573 20.7099 18.3023C20.0274 17.8598 19.2574 17.5573 18.4524 17.3923C17.6499 17.2173 16.8174 17.1698 15.9849 17.1798V16.4248Z" fill="#EB8F00"/>
<path d="M16.0473 17.1749C15.2173 17.1649 14.3823 17.2124 13.5798 17.3874C12.7748 17.5524 12.0048 17.8549 11.3223 18.2974C10.6498 18.7524 10.0748 19.3474 9.65478 20.0599C9.22478 20.7699 8.90478 21.5474 8.72728 22.3624C8.63728 22.7699 8.57978 23.1824 8.56478 23.5999C8.54978 23.8149 8.56228 23.9974 8.60728 24.1899C8.65478 24.3774 8.74478 24.5524 8.85978 24.7074C9.09478 25.0174 9.46978 25.2174 9.86228 25.2599C10.0598 25.2774 10.2598 25.2599 10.4523 25.2049C10.6373 25.1449 10.8373 25.0499 11.0373 24.9699C12.6298 24.3324 14.3373 23.9499 16.0473 23.9724C14.3373 24.0124 12.6598 24.4574 11.1123 25.1424C10.9173 25.2274 10.7348 25.3249 10.5173 25.4049C10.3023 25.4749 10.0723 25.5049 9.84478 25.4924C9.38978 25.4624 8.93978 25.2449 8.64228 24.8824C8.49271 24.7026 8.38129 24.4942 8.31478 24.2699C8.25228 24.0499 8.23228 23.8024 8.23978 23.5899C8.24228 23.1524 8.28478 22.7174 8.36228 22.2849C8.51978 21.4224 8.82728 20.5899 9.25228 19.8224C9.67228 19.0449 10.2823 18.3574 11.0048 17.8299C11.7373 17.3149 12.5723 16.9524 13.4323 16.7449C14.2923 16.5249 15.1748 16.4424 16.0473 16.4199V17.1749Z" fill="#EB8F00"/>
<path d="M27.8725 7.41797C29.205 9.56797 29.9 12.128 29.9 14.9755C29.9 19.2005 28.375 22.7755 25.5 25.3255C22.85 27.6505 19.25 28.9505 15.4 28.9505C10.885 28.9505 6.13998 27.113 3.35498 23.2155C6.04498 27.6305 11.1025 29.7005 15.9 29.7005C19.75 29.7005 23.35 28.4005 26 26.0755C28.875 23.5255 30.4 19.9505 30.4 15.7255C30.4 12.5405 29.5325 9.71047 27.8725 7.41797" fill="#EB8F00"/>
<path d="M5.54729 11.4771C5.41729 11.4996 5.28229 11.4796 5.16729 11.4246C4.93979 11.3146 4.76729 11.0471 4.89729 10.6971C5.37479 9.46207 6.36229 8.42707 7.60729 7.85207C8.06979 7.63707 8.55479 7.49457 9.05229 7.42707C9.42479 7.38457 9.64229 7.61207 9.69479 7.85457C9.75229 8.12457 9.62979 8.45457 9.27979 8.56957L9.24979 8.57957C7.90229 9.04457 6.69979 9.99707 5.95479 11.1896C5.85229 11.3596 5.70229 11.4496 5.54729 11.4771ZM25.8823 11.1896C25.1373 9.99707 23.9348 9.04457 22.5873 8.57957L22.5573 8.56957C22.2073 8.45707 22.0823 8.12457 22.1423 7.85457C22.1948 7.60957 22.4148 7.38457 22.7848 7.42707C23.2798 7.49207 23.7673 7.63707 24.2298 7.85207C25.4748 8.42707 26.4623 9.46207 26.9398 10.6971C27.0698 11.0471 26.8973 11.3146 26.6698 11.4246C26.5573 11.4796 26.4223 11.4996 26.2898 11.4771C26.1348 11.4496 25.9848 11.3596 25.8823 11.1896Z" fill="#422B0D"/>
<path d="M27.935 27.7495C27.935 26.982 26.5475 26.3445 24.805 26.3045L24.2675 13.167C24.215 13.127 24.1625 13.0795 24.12 13.027C24.12 13.027 24.105 13.007 24.075 12.972C24.06 12.9545 24.0425 12.932 24.0225 12.9045C24 12.877 23.9775 12.847 23.9575 12.832L23.8025 12.677C23.74 12.6145 23.665 12.547 23.5875 12.4795C23.4275 12.3445 23.2375 12.2195 23.0375 12.132C22.8375 12.0495 22.635 11.9995 22.4275 12.002H22.395L22.3225 12.0045C22.2575 12.0045 22.27 12.0095 22.25 12.012C22.2325 12.0095 22.1625 12.027 22.115 12.0345C22.015 12.0595 21.91 12.0895 21.81 12.132C21.61 12.2195 20.5375 12.267 20.4675 12.3095L20.3525 27.622C19.22 27.9645 17.98 28.5395 17.98 29.182C17.98 30.2295 19.9375 31.082 22.3525 31.082C24.7675 31.082 26.725 30.2345 26.725 29.187C26.725 29.082 26.7 28.982 26.6625 28.882C27.4375 28.617 27.935 28.2095 27.935 27.7495Z" fill="#29B6F6"/>
<path d="M21.595 26.7172C21.6175 27.5297 21.1275 28.2647 20.3725 28.5672C19.455 28.9347 18.58 29.4522 19.89 29.7622C19.89 29.7622 20.8775 30.2472 21.38 29.9947C21.605 29.8822 21.5275 29.6972 21.3725 29.5297C21.2025 29.3472 21.2875 29.0522 21.53 28.9972L21.745 28.9497C22.0092 28.8909 22.2448 28.742 22.4113 28.5286C22.5778 28.3151 22.6648 28.0503 22.6575 27.7797L22.255 11.3722L21.4325 11.3047L21.595 26.7172Z" fill="#81D4FA"/>
<path d="M11.7201 27.6226L11.6076 12.3401C11.4851 12.2851 11.2751 13.0076 11.2451 12.9701C11.2301 12.9526 11.2126 12.9301 11.1926 12.9026C11.1701 12.8751 11.1476 12.8451 11.1276 12.8301L10.9726 12.6751C10.9101 12.6126 10.8351 12.5451 10.7576 12.4776C10.5976 12.3426 10.4076 12.2176 10.2076 12.1301C10.0076 12.0476 9.80514 11.9976 9.59764 12.0001H9.56514L9.49264 12.0026C9.42764 12.0026 9.44014 12.0076 9.42014 12.0101C9.40264 12.0076 9.33264 12.0251 9.28514 12.0326C9.18514 12.0576 9.08014 12.0876 8.98014 12.1301C8.78014 12.2176 8.59014 12.3426 8.43014 12.4776C8.27264 12.6126 8.14014 12.7451 8.05014 12.8451C7.96014 12.9476 7.90764 13.0051 7.90764 13.0051L7.83264 13.0901C7.82514 13.0976 7.81764 13.1026 7.81014 13.1101L7.27014 26.3026C5.52514 26.3426 4.14014 26.9751 4.14014 27.7426C4.14014 28.2026 4.63764 28.6151 5.41014 28.8776C5.37264 28.9776 5.34764 29.0801 5.34764 29.1851C5.34764 30.2326 7.30514 31.0826 9.72014 31.0826C12.1351 31.0826 14.0926 30.2276 14.0926 29.1801C14.0926 28.5376 12.8501 27.9651 11.7201 27.6226Z" fill="#29B6F6"/>
<path d="M8.81241 12.2854L8.37491 26.1004C8.37221 26.1958 8.3506 26.2897 8.31133 26.3767C8.27206 26.4637 8.21592 26.542 8.14615 26.6071C8.07639 26.6722 7.99439 26.7229 7.90491 26.756C7.81544 26.7892 7.72027 26.8043 7.62491 26.8004C7.10491 26.7779 6.39241 26.8379 5.80741 27.2004C5.49241 27.3954 5.36241 27.8929 5.64991 28.1704C5.96491 28.4729 6.78991 28.2104 7.20241 28.1679C7.38241 28.1504 7.61991 28.1679 7.66741 28.3429C7.69491 28.4429 7.63491 28.5504 7.55241 28.6104C7.46991 28.6729 7.36741 28.6979 7.26741 28.7279C7.10241 28.7754 6.93741 28.8329 6.80741 28.9454C6.67991 29.0579 6.59741 29.2379 6.64241 29.4029C6.70241 29.6154 6.93741 29.7179 7.14491 29.7904C7.50991 29.9229 7.88241 30.0554 8.26991 30.0729C8.29241 29.7979 7.86491 29.6079 7.94991 29.3454C7.97991 29.2529 8.06741 29.1929 8.15491 29.1504C8.38991 29.0404 8.65741 29.0179 8.90991 28.9579C9.32491 28.8604 10.0749 28.6504 9.87991 28.0804C9.81491 27.8929 9.68241 27.7404 9.56991 27.5754C9.14741 26.9504 9.06491 26.4004 9.13991 25.6504C9.19991 25.0654 9.34991 15.8079 9.44991 12.0004C9.47491 11.0879 9.17741 11.9279 8.87991 11.9504C8.85491 11.9829 8.83741 12.2554 8.81241 12.2854Z" fill="#81D4FA"/>
<path d="M12.1499 13.6072L12.0999 13.5572L11.9749 13.4322C11.9249 13.3822 11.8749 13.3572 11.7999 13.2822C11.7249 13.2322 11.6499 13.1572 11.5499 13.1072C11.4499 13.0572 11.3499 12.9822 11.2499 12.9322C11.1499 12.8822 11.0249 12.8322 10.8999 12.7822C10.7749 12.7322 10.6499 12.7072 10.5249 12.6822C10.3999 12.6572 10.2749 12.6572 10.1249 12.6572H10.1499H9.89991C9.84991 12.6572 9.77491 12.6822 9.72491 12.6822C9.59991 12.7072 9.47491 12.7322 9.34991 12.7822C9.22491 12.8322 9.09991 12.8572 8.99991 12.9322C8.89991 12.9822 8.79991 13.0322 8.69991 13.1072C8.52491 13.2322 8.37491 13.3572 8.27491 13.4322L8.12491 13.5822L8.07491 13.6322C7.77491 13.9322 7.27491 13.9322 6.92491 13.6822C6.67491 13.4822 6.59991 13.1322 6.72491 12.8822L6.74991 12.8072C6.77491 12.7572 6.79991 12.6822 6.84991 12.6072C6.94991 12.4322 7.12491 12.1822 7.39991 11.9072C7.52491 11.7822 7.69991 11.6322 7.87491 11.5072C8.04991 11.3822 8.27491 11.2572 8.49991 11.1572C8.72491 11.0572 8.99991 10.9572 9.24991 10.9072C9.37491 10.8822 9.52491 10.8572 9.67491 10.8322C9.74991 10.8322 9.84991 10.8072 9.87491 10.8072H10.0749C10.3499 10.8072 10.6249 10.8322 10.8999 10.8822C11.1749 10.9322 11.4249 11.0322 11.6499 11.1322C11.8749 11.2322 12.0999 11.3572 12.2749 11.4822C12.4749 11.6072 12.6249 11.7322 12.7499 11.8822C12.8749 12.0072 12.9999 12.1322 13.0749 12.2572C13.1249 12.3072 13.1499 12.3822 13.1999 12.4322C13.2249 12.4822 13.2749 12.5322 13.2999 12.5822C13.3749 12.6822 13.3749 12.7322 13.3999 12.7822L13.4249 12.8322C13.5999 13.2072 13.3999 13.6322 12.9749 13.7822C12.7499 13.9072 12.3749 13.8322 12.1499 13.6072ZM23.8774 13.5172L23.8274 13.4672C23.7999 13.4397 23.7374 13.3697 23.6999 13.3422C23.6524 13.3022 23.5949 13.2547 23.5274 13.1997C23.4549 13.1447 23.3724 13.0847 23.2824 13.0222C23.1853 12.9606 23.0851 12.9039 22.9824 12.8522C22.8774 12.7947 22.7574 12.7547 22.6374 12.7097C22.5174 12.6672 22.3899 12.6447 22.2624 12.6172C22.1349 12.5972 22.0024 12.5872 21.8699 12.5872H21.9049H21.8274L21.7499 12.5897C21.6849 12.5897 21.6749 12.5947 21.6499 12.5972C21.6099 12.5972 21.5374 12.6097 21.4749 12.6197C21.3474 12.6472 21.2199 12.6697 21.0999 12.7122C20.9824 12.7572 20.8624 12.7972 20.7574 12.8547C20.6499 12.9097 20.5499 12.9672 20.4574 13.0247C20.2774 13.1447 20.1299 13.2647 20.0324 13.3547C19.9324 13.4447 19.8749 13.4997 19.8749 13.4997L19.8124 13.5622C19.5099 13.8547 18.9999 13.8722 18.6699 13.6047C18.4099 13.3922 18.3449 13.0647 18.4749 12.7922L18.5124 12.7172C18.5374 12.6697 18.5674 12.5947 18.6224 12.5072C18.7249 12.3297 18.8949 12.0797 19.1649 11.8172C19.2999 11.6872 19.4574 11.5497 19.6449 11.4247C19.8274 11.2947 20.0399 11.1772 20.2749 11.0747C20.5099 10.9747 20.7649 10.8872 21.0349 10.8322C21.1724 10.8072 21.2999 10.7822 21.4674 10.7672C21.5449 10.7597 21.6374 10.7522 21.6774 10.7497L21.8699 10.7422C22.1524 10.7472 22.4324 10.7772 22.7049 10.8297C22.9749 10.8847 23.2299 10.9722 23.4649 11.0722C23.6974 11.1747 23.9124 11.2922 24.0949 11.4222C24.2824 11.5472 24.4374 11.6822 24.5724 11.8147C24.7074 11.9447 24.8149 12.0747 24.9049 12.1922C24.9474 12.2522 24.9874 12.3072 25.0249 12.3597C25.0599 12.4172 25.0949 12.4697 25.1224 12.5172C25.1899 12.6222 25.1949 12.6622 25.2199 12.7097L25.2474 12.7722C25.4149 13.1447 25.2124 13.5672 24.7949 13.7172C24.4674 13.8347 24.0999 13.7447 23.8774 13.5172Z" fill="#422B0D"/>
<defs>
<radialGradient id="paint0_radial_2731_226" cx="0" cy="0" r="1" gradientUnits="userSpaceOnUse" gradientTransform="translate(15.8999 15.725) scale(14.24)">
<stop offset="0.5" stop-color="#FDE030"/>
<stop offset="0.919" stop-color="#F7C02B"/>
<stop offset="1" stop-color="#F4A223"/>
</radialGradient>
<radialGradient id="paint1_radial_2731_226" cx="0" cy="0" r="1" gradientUnits="userSpaceOnUse" gradientTransform="translate(15.8999 15.725) scale(14.24)">
<stop offset="0.5" stop-color="#FDE030"/>
<stop offset="0.919" stop-color="#F7C02B"/>
<stop offset="1" stop-color="#F4A223"/>
</radialGradient>
</defs>
</svg>
