<svg width="40" height="40" viewBox="0 0 40 40" fill="none" xmlns="http://www.w3.org/2000/svg">
<path d="M8.75 4.6875C5.24063 6.0125 3.75 5 3.75 5C3.75 8.4375 5.3125 8.4375 5.3125 8.4375C5.3125 8.4375 1.25 11.8406 1.25 17.5C1.25 24.0625 4.52812 26.3188 4.52812 26.3188C4.69687 26.4938 4.96875 26.8906 4.96875 26.8906C4.96875 26.8906 5.0625 27.3688 5.05938 27.6125C5.0375 29.325 5 31.25 6.875 33.125C8.75 35 10.9969 35.0688 11.875 35.3125C13.8062 35.85 24.3875 35.6437 26.6094 35.4969C29.375 35.3125 31.6969 34.3813 33.5281 32.55C35.8531 30.225 34.8688 27.0875 34.9938 26.7469C35.1188 26.4031 39.0938 21.8656 38.7531 16.2531C38.1281 5.94062 30.6281 6.25313 30.6281 6.25313C30.6281 6.25313 28.75 1.25 21.25 1.25C12.5 1.25 9.97813 4.225 8.75 4.6875Z" fill="#312D2D"/>
<path d="M20.0093 35.6593C23.453 35.6781 26.7968 35.7375 27.853 35.4468C28.7343 35.2031 31.3062 34.6906 33.428 32.65C35.028 31.1093 35.3749 28.95 34.8562 27.0375C34.7999 26.825 20.0093 35.6593 20.0093 35.6593Z" fill="url(#paint0_radial_619_580)"/>
<path d="M20.0094 35.6594C16.5657 35.6781 12.9313 35.6062 11.875 35.3125C10.9938 35.0688 8.75005 35 6.87505 33.125C5.00005 31.25 5.03755 29.325 5.05942 27.6125C5.06255 27.3969 4.99067 27.0031 4.97192 26.9094L5.00005 26.875L20.0094 35.6594Z" fill="url(#paint1_radial_619_580)"/>
<path d="M3.6126 25.4157C3.6126 25.4157 6.59385 21.2563 7.48447 18.8125C7.66572 18.3188 8.24697 11.7844 7.96885 10.95C7.4501 9.38129 6.8001 7.31567 5.3126 8.43754C2.49697 11.1094 1.40322 14.0938 1.27197 16.7969C1.04072 21.55 2.77822 24.4344 3.6126 25.4157Z" fill="url(#paint2_radial_619_580)"/>
<path d="M31.8031 21.2219H8.23125C5.69062 21.2219 3.60938 23.2219 3.60938 25.6688C3.60938 28.1157 5.6875 30.1157 8.23125 30.1157H31.8031C34.3437 30.1157 36.425 28.1157 36.425 25.6688C36.425 23.2219 34.3437 21.2219 31.8031 21.2219Z" fill="#EDC391"/>
<path d="M19.9282 2.87817C12.4719 2.87817 5.56567 10.7125 5.56567 21.9844C5.56567 33.1969 12.6813 38.7407 19.9282 38.7407C27.175 38.7407 34.2907 33.1969 34.2907 21.9844C34.2907 10.7125 27.3844 2.87817 19.9282 2.87817Z" fill="#F9DDBD"/>
<path d="M21.5281 27.2281C21.4861 27.2108 21.442 27.1993 21.3969 27.1937H18.4906C18.4469 27.2 18.4031 27.2094 18.3594 27.2281C18.0969 27.3344 17.95 27.6062 18.075 27.8969C18.2 28.1875 18.7781 29.0031 19.9438 29.0031C21.1094 29.0031 21.6875 28.1875 21.8125 27.8969C21.9375 27.6062 21.7906 27.3344 21.5281 27.2281Z" fill="#DBA689"/>
<path d="M10.1594 21.3813C10.1594 21.3813 10.2125 21.3031 10.3156 21.1719C10.3438 21.1406 10.3656 21.1063 10.4031 21.0657C10.4469 21.0219 10.5 20.9782 10.5531 20.9282C10.6094 20.8813 10.6688 20.8282 10.7313 20.7719C10.7938 20.7188 10.8594 20.6782 10.9281 20.6282C10.9969 20.5813 11.0688 20.5313 11.1469 20.4844C11.2281 20.4407 11.3094 20.3969 11.3938 20.3531C11.4781 20.3063 11.5688 20.2656 11.6656 20.2313C11.7594 20.1938 11.8563 20.1563 11.9563 20.1219C12.1594 20.0656 12.3688 20.0031 12.5875 19.975C12.8063 19.9313 13.0313 19.9282 13.2563 19.9188C13.4813 19.9313 13.7063 19.9344 13.925 19.975C14.1438 20.0031 14.3563 20.0656 14.5563 20.1219C14.6563 20.1563 14.7531 20.1938 14.8469 20.2313C14.9406 20.2688 15.0313 20.3063 15.1188 20.3531C15.2031 20.3969 15.2875 20.4438 15.3656 20.4844C15.4438 20.5313 15.5156 20.5813 15.5844 20.6282C15.6531 20.6782 15.7188 20.7188 15.7781 20.7688C15.8344 20.8188 15.8906 20.8688 15.9406 20.9125C15.9906 20.9594 16.0375 21 16.0781 21.0407C16.1188 21.0844 16.1531 21.125 16.1844 21.1625C16.3094 21.3094 16.375 21.3969 16.375 21.3969C16.5844 21.6875 16.5188 22.0906 16.2281 22.2969C16.0531 22.425 15.8344 22.45 15.6406 22.3844L15.5219 22.3438C15.5219 22.3438 15.4438 22.3156 15.3188 22.2625C15.2875 22.25 15.2563 22.2313 15.2188 22.2188C15.1781 22.2063 15.1406 22.1906 15.0969 22.175C15.0125 22.1406 14.9156 22.1063 14.8094 22.075C14.7563 22.0594 14.7031 22.0375 14.6469 22.0219C14.5875 22.0094 14.5313 21.9938 14.4688 21.9782C14.4375 21.9688 14.4094 21.9625 14.3781 21.9531C14.3469 21.9469 14.3156 21.9407 14.2813 21.9344C14.2156 21.925 14.1531 21.9063 14.0875 21.8938C13.9531 21.8781 13.8188 21.85 13.6781 21.8438C13.5375 21.825 13.3969 21.8313 13.2531 21.8219C13.1094 21.8313 12.9688 21.825 12.8281 21.8438C12.6875 21.85 12.5531 21.8781 12.4188 21.8938C12.3531 21.9063 12.2906 21.925 12.225 21.9344L12.1281 21.9531C12.0969 21.9625 12.0688 21.9688 12.0375 21.9782C11.9781 21.9938 11.9188 22.0094 11.8594 22.0219C11.8031 22.0375 11.75 22.0594 11.6969 22.075C11.6438 22.0906 11.5938 22.1063 11.5469 22.1219C11.5063 22.1375 11.4656 22.15 11.4281 22.1656C11.3906 22.1781 11.3531 22.1907 11.3156 22.2C11.275 22.2157 11.2313 22.2407 11.1969 22.2594C11.05 22.3344 10.9625 22.3719 10.9625 22.3719C10.625 22.5125 10.2344 22.3532 10.0938 22.0125C10.0526 21.9099 10.0371 21.7988 10.0486 21.6888C10.06 21.5788 10.098 21.4733 10.1594 21.3813ZM28.9219 22.3688C28.9219 22.3688 28.8344 22.3313 28.6875 22.2563C28.6531 22.2375 28.6094 22.2125 28.5688 22.1969C28.5313 22.1875 28.4969 22.175 28.4563 22.1625C28.4188 22.15 28.3781 22.1344 28.3375 22.1188C28.2906 22.1031 28.2375 22.0875 28.1875 22.0719C28.1344 22.0563 28.0813 22.0344 28.025 22.0188C27.9688 22.0031 27.9094 21.9875 27.8469 21.975C27.8156 21.9656 27.7875 21.9594 27.7563 21.95C27.725 21.9438 27.6938 21.9375 27.6594 21.9313C27.5938 21.9219 27.5313 21.9032 27.4656 21.8907C27.3313 21.875 27.1969 21.8469 27.0563 21.8406C26.9156 21.8219 26.775 21.8281 26.6313 21.8188C26.4875 21.8281 26.3469 21.8219 26.2063 21.8406C26.0656 21.8469 25.9313 21.875 25.7969 21.8907C25.7313 21.9032 25.6688 21.9219 25.6031 21.9313L25.5063 21.95C25.475 21.9594 25.4469 21.9656 25.4156 21.975C25.3563 21.9906 25.2969 22.0063 25.2375 22.0188C25.1813 22.0344 25.1281 22.0563 25.075 22.0719C24.9688 22.1031 24.8719 22.1375 24.7875 22.1719C24.7438 22.1875 24.7063 22.2063 24.6656 22.2156C24.6281 22.2313 24.5969 22.2469 24.5656 22.2594C24.4438 22.3157 24.3656 22.3406 24.3656 22.3406L24.25 22.3813C24.17 22.4094 24.0852 22.4214 24.0005 22.4167C23.9159 22.412 23.833 22.3905 23.7566 22.3537C23.6802 22.3168 23.6119 22.2652 23.5555 22.2018C23.4991 22.1384 23.4559 22.0646 23.4281 21.9844C23.3563 21.7781 23.3969 21.5594 23.5125 21.3938C23.5125 21.3938 23.575 21.3063 23.7031 21.1594C23.7344 21.1219 23.7688 21.0813 23.8094 21.0375C23.85 20.9969 23.9 20.9563 23.9469 20.9094C23.9969 20.8657 24.0531 20.8156 24.1094 20.7656C24.1688 20.7156 24.2344 20.675 24.3031 20.625C24.3719 20.5781 24.4438 20.5281 24.5219 20.4813C24.6031 20.4375 24.6844 20.3938 24.7688 20.35C24.8531 20.3032 24.9438 20.2625 25.0375 20.2282C25.1313 20.1907 25.2281 20.1531 25.3281 20.1188C25.5313 20.0625 25.7406 20 25.9594 19.9719C26.1781 19.9281 26.4031 19.925 26.6281 19.9156C26.8531 19.9281 27.0781 19.9281 27.2969 19.9719C27.5156 19.9969 27.7281 20.0625 27.9281 20.1188C28.0281 20.1531 28.125 20.1907 28.2188 20.2282C28.3125 20.2657 28.4031 20.3032 28.4875 20.35C28.5719 20.3938 28.6563 20.4406 28.7344 20.4813C28.8125 20.5281 28.8844 20.5781 28.9531 20.625C29.0219 20.675 29.0875 20.7156 29.15 20.7688C29.2125 20.8219 29.2719 20.875 29.3281 20.925C29.3813 20.975 29.4344 21.0188 29.4781 21.0625C29.5156 21.1032 29.5406 21.1375 29.5656 21.1688C29.6688 21.2969 29.7219 21.3782 29.7219 21.3782C29.9281 21.6813 29.85 22.0938 29.5469 22.3C29.3594 22.4344 29.1188 22.45 28.9219 22.3688Z" fill="#454140"/>
<path d="M13.1124 27.2032C14.2308 27.2032 15.1374 26.2643 15.1374 25.1063C15.1374 23.9482 14.2308 23.0094 13.1124 23.0094C11.994 23.0094 11.0874 23.9482 11.0874 25.1063C11.0874 26.2643 11.994 27.2032 13.1124 27.2032Z" fill="#312D2D"/>
<path d="M26.775 27.2032C27.8934 27.2032 28.8 26.2643 28.8 25.1063C28.8 23.9482 27.8934 23.0094 26.775 23.0094C25.6566 23.0094 24.75 23.9482 24.75 25.1063C24.75 26.2643 25.6566 27.2032 26.775 27.2032Z" fill="#312D2D"/>
<path d="M23.4406 30.6157C22.1312 31.3938 17.8437 31.3938 16.5343 30.6157C15.7843 30.1688 15.0156 30.8532 15.3281 31.5344C15.6343 32.2063 17.975 33.7625 20 33.7625C22.025 33.7625 24.3343 32.2063 24.6406 31.5344C24.95 30.85 24.1937 30.1688 23.4406 30.6157Z" fill="#444444"/>
<path d="M20 2.1875C13.8093 2.1875 9.03745 5.725 6.7812 11.4C5.87495 13.6781 5.13745 16.1031 5.13745 18.5531C5.13745 22.8125 5.93745 26.5625 5.93745 26.5625C8.12495 23.75 7.49995 20.9375 7.49995 20.9375C10.3125 17.1875 18.6937 14.175 18.75 14.0625L17.0624 17.4406C16.8499 17.8625 17.2125 18.3687 17.6718 18.2687C25.625 16.5625 29.1187 13.4969 29.1187 13.4969C29.1187 13.4969 29.375 18.125 32.8125 21.25C32.8125 21.25 32.8125 23.75 33.75 26.5625C33.75 26.5625 35.3125 20.9375 34.2437 14.9125C33.5406 10.9563 31.2687 7.15313 27.9812 4.70313C25.6718 2.98125 22.8593 2.1875 20 2.1875Z" fill="#312D2D"/>
<path d="M25.3718 1.85311C28.4811 2.87811 30.3905 4.84687 30.9811 7.31874C31.1561 8.04374 31.028 14.7125 18.0999 7.01562C13.2905 4.15312 14.6061 2.35936 15.1686 2.15624C17.3686 1.36561 21.3593 0.53124 25.3718 1.85311Z" fill="url(#paint3_radial_619_580)"/>
<path d="M36.325 24.7531C36.325 24.7531 40.925 18.2406 37.5094 10.9C35.2812 6.11877 30.7562 6.22815 30.625 6.25002C30.625 6.25002 31.1156 7.45002 30.9406 8.36565C30.6438 9.92815 29.3438 10.3781 29.3438 10.3781C34.4625 13.4969 32.7187 21.4813 36.325 24.7531Z" fill="url(#paint4_radial_619_580)"/>
<path d="M8.52509 4.77185C5.22821 5.94998 3.76571 5.02498 3.75634 4.99998C3.65634 5.38435 3.87196 7.71873 5.91259 6.9906C6.79071 6.67185 8.51571 4.88123 8.52509 4.77185Z" fill="url(#paint5_radial_619_580)"/>
<path d="M3.74383 4.99692C3.74383 5.00005 3.74071 5.0063 3.74071 5.01567C3.73133 5.3813 3.73758 8.1813 5.31258 8.43755L7.69071 7.39067C4.72508 7.3313 3.74696 4.98755 3.74696 4.98755C3.74696 4.98755 3.74383 4.9938 3.74383 4.99692Z" fill="url(#paint6_radial_619_580)"/>
<defs>
<radialGradient id="paint0_radial_619_580" cx="0" cy="0" r="1" gradientUnits="userSpaceOnUse" gradientTransform="translate(25.4234 29.3662) rotate(151.359) scale(10.5377 6.84417)">
<stop offset="0.728" stop-color="#454140" stop-opacity="0"/>
<stop offset="1" stop-color="#454140"/>
</radialGradient>
<radialGradient id="paint1_radial_619_580" cx="0" cy="0" r="1" gradientUnits="userSpaceOnUse" gradientTransform="translate(14.6117 29.2585) rotate(28.6411) scale(10.6261 6.9016)">
<stop offset="0.728" stop-color="#454140" stop-opacity="0"/>
<stop offset="1" stop-color="#454140"/>
</radialGradient>
<radialGradient id="paint2_radial_619_580" cx="0" cy="0" r="1" gradientUnits="userSpaceOnUse" gradientTransform="translate(8.3183 14.9569) rotate(-85.7217) scale(10.7274 8.94056)">
<stop offset="0.699" stop-color="#454140" stop-opacity="0"/>
<stop offset="1" stop-color="#454140"/>
</radialGradient>
<radialGradient id="paint3_radial_619_580" cx="0" cy="0" r="1" gradientUnits="userSpaceOnUse" gradientTransform="translate(19.2546 9.8038) rotate(-157.19) scale(14.7733 8.30267)">
<stop offset="0.699" stop-color="#454140" stop-opacity="0"/>
<stop offset="1" stop-color="#454140"/>
</radialGradient>
<radialGradient id="paint4_radial_619_580" cx="0" cy="0" r="1" gradientUnits="userSpaceOnUse" gradientTransform="translate(29.5273 20.1088) rotate(58.4319) scale(15.04 11.1583)">
<stop offset="0.699" stop-color="#454140" stop-opacity="0"/>
<stop offset="1" stop-color="#454140"/>
</radialGradient>
<radialGradient id="paint5_radial_619_580" cx="0" cy="0" r="1" gradientUnits="userSpaceOnUse" gradientTransform="translate(5.32851 3.79054) rotate(4.5657) scale(2.7318 3.23934)">
<stop offset="0.58" stop-color="#454140"/>
<stop offset="1" stop-color="#454140" stop-opacity="0"/>
</radialGradient>
<radialGradient id="paint6_radial_619_580" cx="0" cy="0" r="1" gradientUnits="userSpaceOnUse" gradientTransform="translate(6.72291 7.09193) rotate(-51.6059) scale(2.25637 3.57995)">
<stop offset="0.702" stop-color="#454140" stop-opacity="0"/>
<stop offset="1" stop-color="#454140"/>
</radialGradient>
</defs>
</svg>
