<svg width="24" height="24" viewBox="0 0 24 24" fill="none" xmlns="http://www.w3.org/2000/svg">
<g clip-path="url(#clip0_619_809)">
<path d="M11.9681 0.761236C11.6438 0.729361 1.51126 6.67874 1.22814 6.83249C0.768762 7.07999 0.781886 7.69499 1.28814 7.75499C1.79439 7.81499 2.56689 7.81499 2.56689 7.81499L11.7319 8.64749L21.2231 7.84499C21.2231 7.84499 21.9375 7.86374 22.1756 7.84499C22.5619 7.81499 22.9181 7.42499 22.3538 6.86249C21.6919 6.20249 12.2663 0.791236 11.9681 0.761236ZM1.76064 21.6075C1.76064 21.6075 1.75501 20.8931 1.76064 20.6456C1.76626 20.4262 1.91626 20.4375 2.19564 20.43C2.47876 20.4225 2.64001 20.43 2.64001 20.43L12.3319 17.565L21.1219 20.43C21.1219 20.43 21.5138 20.4431 21.7331 20.4431C21.9506 20.4431 22.1175 20.4712 22.1175 20.7112V21.585H22.8375C22.9894 21.585 23.0119 21.6937 23.0119 21.9337V22.9819C23.0119 23.1337 22.9238 23.2219 22.6631 23.2219H1.28251C1.06501 23.2219 0.933761 23.1337 0.933761 22.9162V21.8681C0.933761 21.6506 1.04251 21.6281 1.23939 21.6281C1.43626 21.6281 1.76064 21.6075 1.76064 21.6075Z" fill="#97AEC0"/>
<path d="M0.931817 22.0707L23.0099 22.0613C23.0099 22.0613 23.0156 21.8813 23.0118 21.7444C23.0081 21.5719 22.8749 21.5813 22.7624 21.5794C22.5056 21.5738 22.1156 21.5738 22.1156 21.5738L22.1137 21.3488L1.75869 21.345L1.76057 21.6075C1.76057 21.6075 1.39307 21.6169 1.07807 21.6225C0.978692 21.6244 0.933692 21.7163 0.928067 21.8213C0.922442 21.9375 0.931817 22.0707 0.931817 22.0707ZM2.27619 7.80941V9.32066L21.4649 9.36941L21.4706 7.84504L12.0918 7.75879L2.27619 7.80941Z" fill="#647584"/>
<path d="M1.46429 7.26744C1.50554 7.37994 6.73304 7.34994 11.9793 7.34244C17.1055 7.33494 22.0162 7.41744 22.0518 7.33119C22.0987 7.21682 19.7343 5.68119 17.1787 4.17744C14.623 2.67369 12.0674 1.19432 11.953 1.22244C11.7262 1.27869 1.38742 7.05932 1.46429 7.26744Z" fill="#CDDFEE"/>
<path d="M11.9643 2.38875C11.8818 2.36813 4.86743 6.20625 4.90493 6.3C4.92368 6.34875 8.55556 6.31313 12.0712 6.3075C15.3956 6.30188 18.7331 6.33563 18.7593 6.28876C18.8174 6.19313 12.0412 2.4075 11.9643 2.38875Z" fill="#97AEC0"/>
<path d="M2.27637 9.18005L2.28574 10.0688L2.88012 10.4119C2.88012 10.4119 2.82387 10.9051 2.95512 11.2276C3.08637 11.5501 3.21949 11.6251 3.31512 11.7019C3.41074 11.7788 3.41074 11.8726 3.41074 11.8726L3.38262 19.0669C3.38262 19.0669 2.89887 19.5076 2.74887 19.7926C2.59699 20.0776 2.63449 20.4376 2.63449 20.4376H21.1257C21.1257 20.4376 21.182 20.0588 21.0882 19.7926C20.9926 19.5282 20.5951 19.4138 20.5951 19.4138V11.7001C20.5951 11.7001 20.9926 11.4151 21.0507 11.1132C21.107 10.8094 21.0695 10.2413 21.0695 10.2413L21.4745 10.0369L21.4707 9.20443L2.27637 9.18005Z" fill="#CDDFEE"/>
<path d="M4.62928 8.08684L3.15928 8.08872L3.15366 8.84622L4.62928 8.85184V8.08684ZM6.80803 8.05872L5.38866 8.08497V8.85559L6.80803 8.83497V8.05872ZM8.8349 8.07934L7.51678 8.08122V8.86122L8.8349 8.86497V8.07934ZM14.1993 8.07184L9.9224 8.07934V8.86684L14.1824 8.87997L14.1993 8.07184ZM16.4755 8.06997L15.1049 8.07184L15.073 8.88184L16.4455 8.88559L16.4755 8.06997ZM18.7574 8.06622L17.3643 8.06809L17.3493 8.88934L18.7443 8.89309L18.7574 8.06622ZM19.5355 8.06434L19.5074 8.89497L20.7899 8.89872V8.06247L19.5355 8.06434ZM3.06366 11.4468L20.8462 11.4656C20.8462 11.4656 20.8424 11.6381 20.7149 11.7562C20.608 11.8537 20.5949 11.9643 20.5949 11.9643L3.40866 11.9906C3.40866 11.9906 3.37491 11.8725 3.24928 11.7262C3.16303 11.625 3.06366 11.4468 3.06366 11.4468ZM2.28178 9.98997C2.28178 9.98997 2.23866 10.2243 2.39053 10.3537C2.54241 10.4831 2.67178 10.4906 3.07491 10.4793C3.47803 10.4681 20.9868 10.47 21.1893 10.4493C21.3918 10.4287 21.463 10.2712 21.4668 10.2056C21.4705 10.155 21.4724 9.98059 21.4724 9.98059L2.28178 9.98997ZM3.37678 18.9337C3.37678 18.9337 3.25678 19.0668 3.18366 19.1625C3.11053 19.2581 2.99616 19.4531 2.99616 19.4531L20.8087 19.5018C20.8087 19.5018 20.6849 19.3462 20.638 19.2393C20.5874 19.125 20.593 19.0031 20.593 19.0031L3.37678 18.9337Z" fill="#97AEC0"/>
<path d="M6.32822 10.4682C6.32822 10.4682 6.33385 11.0644 6.2176 11.3138C6.10135 11.5594 5.94385 11.7075 5.94385 11.7075L5.95885 19.1325C5.95885 19.1325 6.32447 19.5207 6.40697 19.7532C6.48947 19.9857 6.47635 20.4375 6.47635 20.4375H7.71572C7.71572 20.4375 7.68385 19.8694 7.84885 19.605C8.01385 19.3407 8.22947 19.125 8.22947 19.125L8.2126 11.7413C8.2126 11.7413 8.01385 11.4432 7.94822 11.1957C7.88072 10.9482 7.8751 10.4719 7.8751 10.4719L6.32822 10.4682ZM11.1901 10.47C11.1901 10.47 11.207 11.0307 11.0907 11.295C10.9745 11.5594 10.8263 11.7375 10.8263 11.7375L10.7588 18.9432C10.7588 18.9432 11.1563 19.3069 11.2726 19.5563C11.3888 19.8038 11.3738 20.4357 11.3738 20.4357L12.722 20.4375C12.722 20.4375 12.7126 19.8038 12.812 19.5544C12.9113 19.305 13.2432 19.0575 13.2432 19.0575L13.2113 11.7713C13.2113 11.7713 12.9451 11.5913 12.8626 11.2444C12.7801 10.8975 12.797 10.4625 12.797 10.4625L11.1901 10.47ZM16.1738 10.4663L17.6513 10.4569C17.6513 10.4569 17.6288 10.8807 17.7451 11.2444C17.8613 11.6082 18.1257 11.82 18.1257 11.82L18.1107 19.0744C18.1107 19.0744 17.8782 19.2075 17.7132 19.5057C17.5482 19.8038 17.5745 20.4357 17.5745 20.4357H16.2638C16.2638 20.4357 16.3257 19.7907 16.1907 19.4888C16.1157 19.32 15.7763 19.0425 15.7763 19.0425L15.797 11.8107C15.797 11.8107 16.0745 11.46 16.1232 11.2125C16.1738 10.965 16.1738 10.4663 16.1738 10.4663Z" fill="#54636E"/>
</g>
<defs>
<clipPath id="clip0_619_809">
<rect width="24" height="24" fill="white"/>
</clipPath>
</defs>
</svg>
