<svg width="16" height="16" viewBox="0 0 16 16" fill="none" xmlns="http://www.w3.org/2000/svg">
<path d="M7.94995 14.85C4.46245 14.85 0.699951 12.6625 0.699951 7.8625C0.699951 3.0625 4.46245 0.875 7.94995 0.875C9.88745 0.875 11.675 1.5125 13 2.675C14.4375 3.95 15.2 5.75 15.2 7.8625C15.2 9.975 14.4375 11.7625 13 13.0375C11.675 14.2 9.87495 14.85 7.94995 14.85Z" fill="url(#paint0_radial_2731_248)"/>
<path d="M13.9362 3.70898C14.6025 4.78398 14.95 6.06398 14.95 7.48773C14.95 9.60023 14.1875 11.3877 12.75 12.6627C11.425 13.8252 9.62499 14.4752 7.69999 14.4752C5.44249 14.4752 3.07499 13.5565 1.67749 11.6077C3.02249 13.8152 5.55249 14.8502 7.94999 14.8502C9.87499 14.8502 11.675 14.2002 13 13.0377C14.4375 11.7627 15.2 9.97523 15.2 7.86273C15.2 6.27023 14.7662 4.85523 13.9362 3.70898Z" fill="#EB8F00"/>
<path d="M10.4874 11.3374C10.4387 11.3361 10.3924 11.3236 10.3499 11.2999C9.63377 10.8947 8.82264 10.6876 7.99992 10.6999C7.17742 10.6936 6.36867 10.8999 5.64992 11.2999C5.61242 11.3236 5.56867 11.3361 5.52492 11.3374C5.42492 11.3336 5.33367 11.2761 5.28742 11.1874C5.24867 11.0961 5.26367 10.9899 5.32492 10.9124C6.61992 9.43488 8.86742 9.28738 10.3449 10.5824C10.4624 10.6849 10.5724 10.7949 10.6749 10.9124C10.7674 11.0224 10.7524 11.1849 10.6437 11.2774C10.5999 11.3136 10.5449 11.3349 10.4874 11.3374ZM9.23742 6.26238C9.24742 6.26363 9.25617 6.26738 9.26242 6.27488C9.27617 6.27613 9.28617 6.28613 9.28742 6.29988C9.29992 6.29988 9.29992 6.29988 9.31242 6.31238C9.34117 6.32738 9.36992 6.33988 9.39992 6.34988L9.51242 6.38738C9.61492 6.42113 9.71867 6.44613 9.82492 6.46238C9.88742 6.47488 9.94992 6.47488 10.0124 6.48738C10.0787 6.49738 10.1449 6.50238 10.2124 6.49988H10.4124C10.4756 6.49789 10.5384 6.48952 10.5999 6.47488C10.7249 6.44988 10.8249 6.42488 10.9124 6.39988C10.9999 6.37488 11.0624 6.33738 11.1124 6.32488C11.1399 6.31863 11.1662 6.30613 11.1874 6.28738L11.2499 6.26238C11.3364 6.21753 11.437 6.2081 11.5303 6.2361C11.6236 6.2641 11.7024 6.32732 11.7499 6.41238C11.7847 6.47727 11.7997 6.55094 11.793 6.62426C11.7864 6.69758 11.7583 6.76734 11.7124 6.82488C11.7024 6.83613 11.6937 6.84863 11.6874 6.86238C11.6662 6.89488 11.6412 6.92488 11.6124 6.94988C11.5174 7.04488 11.4124 7.12863 11.2999 7.19988C11.1449 7.26613 10.9862 7.32488 10.8249 7.37488C10.7299 7.40113 10.6349 7.42238 10.5374 7.43738C10.4874 7.43738 10.4374 7.44988 10.3749 7.44988H10.2249C10.1249 7.44738 10.0249 7.43988 9.92492 7.42488C9.82742 7.41113 9.73117 7.38988 9.63742 7.36238C9.46492 7.31738 9.30117 7.24488 9.14992 7.14988C9.07492 7.11238 9.02492 7.06238 8.96242 7.02488C8.91367 6.98613 8.86742 6.94488 8.82492 6.89988L8.77492 6.84988C8.76242 6.83738 8.76242 6.82488 8.74992 6.82488L8.72492 6.79988C8.60117 6.63363 8.63367 6.39863 8.79992 6.27488C8.93242 6.18988 9.10117 6.18488 9.23742 6.26238ZM4.63742 6.26238C4.64742 6.26363 4.65617 6.26738 4.66242 6.27488C4.67617 6.27613 4.68617 6.28613 4.68742 6.29988C4.69992 6.29988 4.69992 6.29988 4.71242 6.31238C4.74117 6.32738 4.76992 6.33988 4.79992 6.34988L4.91242 6.38738C5.01492 6.42113 5.11867 6.44613 5.22492 6.46238C5.28742 6.47488 5.34992 6.47488 5.41242 6.48738C5.47867 6.49863 5.54492 6.50238 5.61242 6.49988H5.81242C5.8756 6.49789 5.93842 6.48952 5.99992 6.47488C6.12492 6.44988 6.22492 6.42488 6.31242 6.39988C6.39992 6.37488 6.46242 6.33738 6.51242 6.32488C6.53992 6.31863 6.56617 6.30613 6.58742 6.28738L6.64992 6.26238C6.73642 6.21753 6.83698 6.2081 6.9303 6.2361C7.02363 6.2641 7.1024 6.32732 7.14992 6.41238C7.18471 6.47727 7.19971 6.55094 7.19304 6.62426C7.18637 6.69758 7.15834 6.76734 7.11242 6.82488C7.10242 6.83613 7.09367 6.84863 7.08742 6.86238C7.06617 6.89488 7.04117 6.92488 7.01242 6.94988C6.91992 7.04738 6.81492 7.13113 6.69992 7.19988C6.54492 7.29488 6.37617 7.36738 6.19992 7.41238C6.10492 7.43863 6.00992 7.45988 5.91242 7.47488C5.86242 7.47488 5.81242 7.48738 5.74992 7.48738H5.59992C5.49992 7.48488 5.39992 7.47738 5.29992 7.46238C5.20242 7.44863 5.10617 7.42738 5.01242 7.39988C4.83742 7.35238 4.66867 7.28113 4.51242 7.18738C4.44992 7.14988 4.38742 7.09988 4.32492 7.06238C4.27617 7.02363 4.22992 6.98238 4.18742 6.93738L4.13742 6.88738C4.12492 6.87488 4.12492 6.86238 4.11242 6.86238L4.08742 6.83738C3.96367 6.67113 3.99617 6.43613 4.16242 6.31238C4.29492 6.19988 4.48367 6.17988 4.63742 6.26238Z" fill="#35220B"/>
<path d="M9.43996 4.73626L9.42746 4.75126C9.24496 5.00126 8.82996 4.81626 8.97371 4.50126C9.09496 4.25001 9.25371 4.01876 9.44371 3.81501C9.95246 3.26251 10.6537 2.92626 11.4025 2.87501C11.545 2.86251 11.6712 2.97001 11.6837 3.11251C11.6892 3.1784 11.6694 3.24389 11.6282 3.29567C11.5871 3.34746 11.5279 3.38164 11.4625 3.39126C10.6558 3.59851 9.94303 4.07254 9.43996 4.73626ZM6.80246 4.86126L6.81371 4.87626C6.99746 5.12626 7.41246 4.94126 7.26871 4.62626C7.14703 4.37512 6.98816 4.14377 6.79746 3.94001C6.28928 3.38774 5.5887 3.05131 4.83996 3.00001C4.69746 2.98626 4.56996 3.09126 4.55621 3.23376C4.54246 3.37251 4.64121 3.49626 4.77871 3.51626C5.58568 3.72353 6.29887 4.19752 6.80246 4.86126Z" fill="#422B0D"/>
<path d="M0.721279 11.5002C0.821279 11.3802 0.836279 11.2115 0.758779 11.0752C0.588361 10.7848 0.540252 10.4386 0.625029 10.1127C0.758779 9.55648 1.24128 9.15523 1.81253 9.12523H1.88753C2.10128 9.12648 2.31128 9.18023 2.50003 9.28148C2.70003 9.39648 2.87753 9.55023 3.02003 9.73148C3.46003 9.54898 5.33253 8.85648 5.81628 8.67773H5.82378L4.54128 11.3965C5.12128 11.8252 5.24378 12.644 4.81503 13.224C4.7018 13.3771 4.55638 13.5036 4.38902 13.5945C4.22165 13.6855 4.03639 13.7386 3.84628 13.7502H3.77003C3.46503 13.7527 3.16878 13.6465 2.93378 13.4502C2.86378 13.3927 2.77503 13.3615 2.68378 13.3627C2.60878 13.364 2.53503 13.3852 2.47128 13.4252C2.25219 13.5706 1.99543 13.6488 1.73253 13.6502C1.63128 13.6502 1.53128 13.6377 1.43378 13.6127C0.870029 13.4852 0.458779 13.0015 0.420029 12.4252C0.395029 12.089 0.503779 11.7565 0.721279 11.5002Z" fill="white"/>
<path d="M5.81996 8.6748L3.89746 11.2111L4.54121 11.3961L5.81996 8.6748Z" fill="#92CBEB"/>
<path d="M3.95625 11.1673C3.90875 11.1698 3.8725 11.2085 3.875 11.256C3.87625 11.2873 3.895 11.3148 3.9225 11.3285C4.18 11.441 4.36625 11.671 4.4225 11.946C4.475 12.236 4.3975 12.611 4.1725 12.821C3.9475 13.031 3.575 13.071 3.28875 12.996C3.0025 12.921 2.66375 12.621 2.4425 12.3973C2.42413 12.3786 2.39918 12.3679 2.37301 12.3674C2.34683 12.367 2.32152 12.3768 2.3025 12.3948C2.28625 12.4098 2.27625 12.4298 2.27375 12.4523C2.26125 12.5723 2.27125 12.6935 2.30625 12.8085C2.32375 12.9223 1.7425 13.3598 1.08375 13.0073C0.147497 12.4998 0.888747 11.4373 0.782497 11.396C0.767497 11.4335 0.747497 11.4685 0.721247 11.4998C0.503368 11.7566 0.395175 12.0889 0.419997 12.4248C0.458747 13.001 0.869997 13.4848 1.43375 13.6123C1.53125 13.6373 1.63125 13.6498 1.7325 13.6498C1.995 13.6485 2.2525 13.5698 2.47125 13.4248C2.535 13.3848 2.60875 13.3635 2.68375 13.3623C2.775 13.361 2.86375 13.3923 2.93375 13.4498C3.16875 13.646 3.465 13.7523 3.77 13.7498H3.84625C4.56625 13.7048 5.11375 13.0848 5.0675 12.3648C5.04375 11.9798 4.85 11.626 4.54125 11.396L4.6175 11.2323C4.4025 11.1698 4.17875 11.1485 3.95625 11.1673ZM0.624997 10.1123C0.541247 10.4385 0.591247 10.7848 0.762497 11.0748C0.814997 11.1735 0.823747 11.2898 0.786247 11.3948C0.943787 11.2769 1.05059 11.1035 1.085 10.9098C1.0975 10.6985 1.07375 10.4873 1.0125 10.2848C0.956247 10.1135 0.966247 9.92852 1.04125 9.76477C1.1775 9.43852 1.585 9.24852 1.62 9.23477C1.705 9.19977 1.7225 9.16102 1.71875 9.13477C1.45867 9.16716 1.21465 9.27807 1.01923 9.45272C0.82381 9.62737 0.686286 9.85744 0.624997 10.1123Z" fill="#92CBEB"/>
<path d="M15.2788 11.5002C15.2299 11.4417 15.2001 11.3696 15.1934 11.2936C15.1867 11.2176 15.2034 11.1414 15.2413 11.0752C15.4125 10.7852 15.4625 10.439 15.3788 10.1127C15.3139 9.84205 15.1632 9.59961 14.9491 9.42164C14.7351 9.24366 14.4693 9.13968 14.1913 9.12523H14.1163C13.9013 9.12523 13.6888 9.17898 13.5 9.28148C13.3 9.39648 13.1225 9.55023 12.98 9.73148C12.54 9.54898 10.6675 8.85648 10.1838 8.67773H10.1763L11.4588 11.3965C10.8788 11.8252 10.7563 12.644 11.185 13.224C11.4138 13.534 11.7688 13.7265 12.1538 13.7502H12.23C12.535 13.7527 12.8313 13.6465 13.0663 13.4502C13.1363 13.3927 13.225 13.3615 13.3163 13.3627C13.3913 13.364 13.465 13.3852 13.5288 13.4252C13.7479 13.5706 14.0046 13.6488 14.2675 13.6502C14.3688 13.6502 14.4688 13.6377 14.5663 13.6127C15.13 13.4852 15.5413 13.0015 15.58 12.4252C15.605 12.089 15.4963 11.7565 15.2788 11.5002Z" fill="white"/>
<path d="M10.1799 8.6748L12.1012 11.2111L11.4587 11.3961L10.1799 8.6748Z" fill="#92CBEB"/>
<path d="M12.0438 11.1673C12.0913 11.1698 12.1276 11.2085 12.1251 11.256C12.1239 11.2873 12.1051 11.3148 12.0776 11.3285C11.8201 11.441 11.6339 11.671 11.5776 11.946C11.5251 12.236 11.6026 12.611 11.8276 12.821C12.0526 13.031 12.4251 13.071 12.7114 12.996C12.9976 12.921 13.3364 12.621 13.5576 12.3973C13.576 12.3786 13.6009 12.3679 13.6271 12.3674C13.6533 12.367 13.6786 12.3768 13.6976 12.3948C13.7139 12.4098 13.7238 12.4298 13.7263 12.4523C13.7388 12.5723 13.7289 12.6935 13.6939 12.8085C13.6764 12.9223 14.2576 13.3598 14.9164 13.0073C15.8551 12.5073 15.1139 11.4435 15.2201 11.4023C15.2351 11.4398 15.2551 11.4748 15.2814 11.506C15.4989 11.7623 15.6076 12.0948 15.5826 12.431C15.5439 13.0073 15.1326 13.491 14.5689 13.6185C14.4714 13.6435 14.3714 13.656 14.2701 13.656C14.0076 13.6548 13.7501 13.576 13.5314 13.431C13.4676 13.391 13.3939 13.3698 13.3189 13.3685C13.2276 13.3673 13.1389 13.3985 13.0689 13.456C12.8345 13.6521 12.5381 13.7584 12.2326 13.756H12.1564C11.4363 13.711 10.8889 13.091 10.9351 12.371C10.9589 11.986 11.1526 11.6323 11.4614 11.4023L11.3851 11.2385C11.5989 11.1748 11.8213 11.151 12.0438 11.1673ZM15.3751 10.1123C15.4589 10.4385 15.4089 10.7848 15.2376 11.0748C15.1851 11.1735 15.1764 11.2898 15.2139 11.3948C15.0563 11.2769 14.9495 11.1035 14.9151 10.9098C14.9026 10.6985 14.9264 10.4873 14.9876 10.2848C15.0439 10.1135 15.0338 9.92852 14.9588 9.76477C14.8226 9.43852 14.4151 9.24852 14.3801 9.23477C14.2951 9.19977 14.2776 9.16102 14.2814 9.13477C14.8139 9.20102 15.2501 9.59102 15.3751 10.1123Z" fill="#92CBEB"/>
<defs>
<radialGradient id="paint0_radial_2731_248" cx="0" cy="0" r="1" gradientUnits="userSpaceOnUse" gradientTransform="translate(7.94995 7.8625) scale(7.12)">
<stop offset="0.5" stop-color="#FDE030"/>
<stop offset="0.92" stop-color="#F7C02B"/>
<stop offset="1" stop-color="#F4A223"/>
</radialGradient>
</defs>
</svg>
