<svg width="55" height="40" viewBox="0 0 55 40" fill="none" xmlns="http://www.w3.org/2000/svg">
<path d="M45.9063 24.9531C45.5156 24.2437 46.0125 23.5219 46.8625 22.6281C48.2094 21.2094 49.675 17.9187 48.3125 14.5781C48.3219 14.5594 48.0438 13.9969 48.0531 13.9781L47.4938 13.95C47.3156 13.925 41.1625 13.9125 35.0031 13.9125C28.8438 13.9125 22.6906 13.925 22.5125 13.95C22.5125 13.95 21.6844 14.5594 21.6906 14.5781C20.3313 17.9187 21.7938 21.2062 23.1406 22.6281C23.9875 23.5219 24.4844 24.2437 24.0969 24.9531C23.7188 25.6437 22.5938 25.7437 22.5938 25.7437C22.5938 25.7437 22.8531 26.45 23.4781 26.8312C24.0563 27.1844 24.7688 27.2656 25.2594 27.2781C25.2594 27.2781 27.1813 29.9375 32.2063 29.9375H37.8C42.825 29.9375 44.7469 27.2781 44.7469 27.2781C45.2375 27.2656 45.95 27.1844 46.5281 26.8312C47.1531 26.45 47.4125 25.7437 47.4125 25.7437C47.4125 25.7437 46.2844 25.6437 45.9063 24.9531Z" fill="#AB872F"/>
<path d="M34.9968 29.9343V26.9843L43.925 26.2781L44.7375 27.2781C44.7375 27.2781 42.8156 29.9375 37.7906 29.9375L34.9968 29.9343Z" fill="url(#paint0_radial_619_705)"/>
<path d="M44.7188 25.9875C43.3813 23.9563 46.347 23.1969 46.347 23.1969L46.3501 23.2C45.8345 23.8406 45.6001 24.4 45.9032 24.9531C46.2813 25.6438 47.4063 25.7438 47.4063 25.7438C47.4063 25.7438 45.872 27.1063 44.7188 25.9875Z" fill="url(#paint1_radial_619_705)"/>
<path d="M48.3188 14.5781C49.6469 17.8125 48.25 21.1437 46.9407 22.55C46.7625 22.7437 46 23.4906 45.825 24.0875C45.825 24.0875 42.8438 19.9281 41.9532 17.4843C41.775 16.9906 41.6094 16.4843 41.5875 15.9593C41.5719 15.5656 41.6313 15.0968 41.8594 14.7625C42.1375 14.3531 48.1594 14.2312 48.1594 14.2312C48.1594 14.2343 48.3188 14.5781 48.3188 14.5781Z" fill="url(#paint2_radial_619_705)"/>
<path d="M21.6876 14.5782C20.3626 17.8125 21.7594 21.1438 23.0657 22.5469C23.2469 22.7407 24.0063 23.4875 24.1813 24.0844C24.1813 24.0844 27.1626 19.925 28.0532 17.4813C28.2344 16.9875 28.3969 16.4813 28.4188 15.9563C28.4344 15.5625 28.3751 15.0938 28.1469 14.7594C27.8688 14.35 27.5438 14.4594 27.0719 14.4594C26.1719 14.4594 22.2313 14.2281 21.9251 14.2281C21.9282 14.2344 21.6876 14.5782 21.6876 14.5782Z" fill="url(#paint3_radial_619_705)"/>
<path d="M35.0094 29.9343V26.9843L26.0813 26.2781L25.2688 27.2781C25.2688 27.2781 27.1907 29.9375 32.2157 29.9375L35.0094 29.9343Z" fill="url(#paint4_radial_619_705)"/>
<path d="M25.2876 25.9875C26.6251 23.9563 23.6595 23.1969 23.6595 23.1969L23.6563 23.2C24.172 23.8406 24.4063 24.4 24.1032 24.9531C23.7251 25.6438 22.6001 25.7438 22.6001 25.7438C22.6001 25.7438 24.1345 27.1063 25.2876 25.9875Z" fill="url(#paint5_radial_619_705)"/>
<path d="M35.0437 30H35C26.9844 30.0094 18.75 32.2187 18.75 37.8094V38.7313H51.25V37.8094C51.25 32.5375 43.0937 30 35.0437 30Z" fill="url(#paint6_linear_619_705)"/>
<path d="M38.4437 28.5563H31.5562L29.4968 30.7813L32.4593 35.3719L35 32.2344L37.5406 35.3719L40.5031 30.7813L38.4437 28.5563Z" fill="url(#paint7_linear_619_705)"/>
<path d="M35.1813 34.8781H34.8407C34.4688 34.8781 34.147 34.6218 34.0595 34.2593L33.9282 33.7125C33.8095 33.2093 34.447 32.725 35.0282 32.725C35.6095 32.725 36.2032 33.2031 36.0876 33.7062L35.9626 34.2531C35.8813 34.6219 35.5563 34.8781 35.1813 34.8781Z" fill="#1565C0"/>
<path d="M31.2937 35.3531V32.4156C31.2937 32.05 31.6906 31.8187 32.0125 31.9969L34.6187 33.4437C34.9437 33.625 34.95 34.0906 34.625 34.275L32.0187 35.7687C31.6937 35.95 31.2937 35.7219 31.2937 35.3531ZM38.6 35.3531V32.4156C38.6 32.05 38.2031 31.8187 37.8812 31.9969L35.275 33.4437C34.95 33.625 34.9437 34.0906 35.2687 34.275L37.875 35.7687C38.1968 35.95 38.6 35.7219 38.6 35.3531Z" fill="#1565C0"/>
<path d="M35 26.3532H32.1625V29.4719C32.1625 30.8813 33.3188 32.025 34.7438 32.025H35.2594C36.6844 32.025 37.8407 30.8813 37.8407 29.4719V26.3532H35ZM43.5407 15.7594H26.4594C24.6188 15.7594 23.1125 17.3656 23.1125 19.325C23.1125 21.2844 24.6188 22.8906 26.4594 22.8906H43.5375C45.3782 22.8906 46.8844 21.2844 46.8844 19.325C46.8844 17.3656 45.3813 15.7594 43.5407 15.7594Z" fill="#C48E6A"/>
<path d="M34.9999 3.45935C29.5624 3.45935 24.5249 9.27498 24.5249 17.6469C24.5249 25.9719 29.7155 30.0875 34.9999 30.0875C40.2843 30.0875 45.4749 25.9687 45.4749 17.6437C45.4749 9.27498 40.4374 3.45935 34.9999 3.45935Z" fill="#E0BB95"/>
<path d="M32.1249 15.5688C31.8343 15.1844 31.1655 14.6282 29.8655 14.6282C28.5655 14.6282 27.8937 15.1875 27.6062 15.5688C27.478 15.7375 27.5093 15.9344 27.5999 16.0532C27.6812 16.1625 27.9249 16.2657 28.1937 16.175C28.4624 16.0844 28.9874 15.8125 29.8655 15.8063C30.7437 15.8125 31.2687 16.0844 31.5374 16.175C31.8062 16.2657 32.0499 16.1657 32.1312 16.0532C32.2187 15.9344 32.253 15.7375 32.1249 15.5688ZM42.3968 15.5688C42.1062 15.1844 41.4374 14.6282 40.1374 14.6282C38.8374 14.6282 38.1655 15.1875 37.878 15.5688C37.7499 15.7375 37.7812 15.9344 37.8718 16.0532C37.9531 16.1625 38.1968 16.2657 38.4655 16.175C38.7343 16.0844 39.2593 15.8125 40.1374 15.8063C41.0156 15.8125 41.5406 16.0844 41.8093 16.175C42.0781 16.2657 42.3218 16.1657 42.4031 16.0532C42.4906 15.9344 42.5249 15.7375 42.3968 15.5688Z" fill="#AB872F"/>
<path d="M29.8624 19.9719C30.7133 19.9719 31.403 19.2584 31.403 18.3782C31.403 17.498 30.7133 16.7844 29.8624 16.7844C29.0115 16.7844 28.3218 17.498 28.3218 18.3782C28.3218 19.2584 29.0115 19.9719 29.8624 19.9719Z" fill="#5D4037"/>
<path d="M40.1373 19.9719C40.9882 19.9719 41.6779 19.2584 41.6779 18.3782C41.6779 17.498 40.9882 16.7844 40.1373 16.7844C39.2864 16.7844 38.5967 17.498 38.5967 18.3782C38.5967 19.2584 39.2864 19.9719 40.1373 19.9719Z" fill="#5D4037"/>
<path d="M36.2063 21.2688C36.1719 21.2563 36.1407 21.2469 36.1063 21.2438H33.8938C33.8594 21.2469 33.8251 21.2563 33.7938 21.2688C33.5938 21.35 33.4844 21.5563 33.5782 21.7781C33.6719 22 34.1126 22.6188 35.0001 22.6188C35.8876 22.6188 36.3282 21.9969 36.4219 21.7781C36.5157 21.5563 36.4063 21.35 36.2063 21.2688Z" fill="#C48E6A"/>
<path d="M37.6312 23.7937C36.6375 24.3844 33.3718 24.3844 32.3781 23.7937C31.8062 23.4531 31.2218 23.975 31.4593 24.4937C31.6937 25.0031 33.4718 26.1875 35.0125 26.1875C36.5531 26.1875 38.3093 25.0031 38.5437 24.4937C38.7781 23.975 38.2031 23.4531 37.6312 23.7937Z" fill="#6D4C41"/>
<path d="M47.5219 7.84692C46.7594 6.6938 45.05 5.14692 43.5156 5.0438C43.2688 3.5688 41.6906 2.3188 40.1625 1.83442C36.0281 0.52505 33.3375 1.9938 31.8938 2.7813C31.5938 2.9438 29.6532 4.02192 28.2969 3.25005C27.4469 2.76567 27.4625 1.4563 27.4625 1.4563C27.4625 1.4563 24.8 2.47192 25.7094 5.30005C24.7938 5.33755 23.5938 5.72505 22.9594 7.00942C22.2032 8.54067 22.4719 9.8188 22.6907 10.4313C21.9032 11.1 20.9125 12.5219 21.5907 14.3688C22.1032 15.7594 24.1438 16.4 24.1438 16.4C24 18.9032 24.4657 20.4438 24.7125 21.0657C24.7563 21.175 24.9094 21.1657 24.9375 21.0532C25.2469 19.8125 26.3032 15.4907 26.1969 14.7375C26.1969 14.7375 29.7438 14.0344 33.125 11.5438C33.8125 11.0375 34.5594 10.6063 35.3531 10.2907C39.6 8.60005 40.4875 11.4844 40.4875 11.4844C40.4875 11.4844 43.4313 10.9188 44.3188 15.0063C44.6531 16.5375 44.8781 18.9907 45.0688 20.7063C45.0813 20.8282 45.2469 20.8532 45.2938 20.7407C45.5906 20.0594 46.1844 18.7094 46.325 17.3313C46.375 16.8469 47.6813 16.2063 48.2438 14.125C48.9969 11.35 48.075 8.6813 47.5219 7.84692Z" fill="#AB872F"/>
<path d="M46.3188 17.3438C46.3688 16.8594 47.6751 16.2188 48.2376 14.1375C48.297 13.9156 48.347 13.6906 48.3938 13.4656C48.8501 10.9375 48.0313 8.61565 47.522 7.8469C46.8157 6.78127 45.3032 5.38127 43.8688 5.09377C43.7438 5.07815 43.622 5.06252 43.5063 5.05627C43.5063 5.05627 43.6095 5.72815 43.3376 6.26252C42.9876 6.95627 42.272 7.1219 42.272 7.1219C46.0126 10.8656 45.747 13.9969 46.3188 17.3438Z" fill="url(#paint8_radial_619_705)"/>
<path d="M32.7968 2.3094C32.4531 2.47502 32.1531 2.64065 31.8906 2.78127C31.5906 2.94377 29.6499 4.0219 28.2937 3.25002C27.4593 2.77502 27.4593 1.50627 27.4593 1.46252C27.0749 1.95315 25.9124 5.45627 29.3124 5.69065C30.7781 5.79065 31.6812 4.51252 32.2187 3.43127C32.4124 3.03752 32.7156 2.46252 32.7968 2.3094Z" fill="url(#paint9_radial_619_705)"/>
<path d="M39.7376 1.70938C42.0251 2.32813 43.1407 3.49375 43.5126 5.04688C43.6219 5.50313 43.7532 9.75938 35.6282 4.92188C32.6063 3.12188 33.4313 1.99688 33.7844 1.86875C35.1657 1.36875 37.1751 1.01563 39.7376 1.70938Z" fill="url(#paint10_radial_619_705)"/>
<path d="M27.45 1.46255C27.4469 1.46567 27.4407 1.46567 27.4313 1.47192H27.4282C27.1375 1.5938 24.8532 2.65317 25.7063 5.30005L28.1375 5.69067C25.9844 3.50942 27.4594 1.4563 27.4594 1.4563C27.4594 1.4563 27.4532 1.45942 27.45 1.46255Z" fill="url(#paint11_radial_619_705)"/>
<path d="M27.2093 5.54067L25.7061 5.30005C25.6468 5.30005 25.4468 5.3188 25.3374 5.33442C24.4905 5.45317 23.4936 5.89067 22.953 7.00942C22.3718 8.21567 22.3874 9.25005 22.5468 9.94067C22.5936 10.1719 22.6874 10.4344 22.6874 10.4344C22.6874 10.4344 23.4311 9.72817 25.203 9.6813L27.2093 5.54067Z" fill="url(#paint12_radial_619_705)"/>
<path d="M22.6156 10.4938C21.875 11.15 20.8781 12.6156 21.6125 14.4344C22.1656 15.8063 24.1406 16.4 24.1406 16.4C24.1406 16.4063 24.5344 16.525 24.7375 16.525L25.2 9.68127C24.2531 9.68127 23.3437 9.96565 22.7562 10.375C22.7656 10.3844 22.6125 10.4844 22.6156 10.4938Z" fill="url(#paint13_radial_619_705)"/>
<path d="M30.9063 24.9531C30.5156 24.2437 31.0125 23.5219 31.8625 22.6281C33.2094 21.2094 34.675 17.9187 33.3125 14.5781C33.3219 14.5594 33.0438 13.9969 33.0531 13.9781L32.4938 13.95C32.3156 13.925 26.1625 13.9125 20.0031 13.9125C13.8438 13.9125 7.69064 13.925 7.51251 13.95C7.51251 13.95 6.68439 14.5594 6.69064 14.5781C5.33126 17.9187 6.79376 21.2062 8.14064 22.6281C8.98751 23.5219 9.48439 24.2437 9.09689 24.9531C8.71876 25.6437 7.59376 25.7437 7.59376 25.7437C7.59376 25.7437 7.85314 26.45 8.47814 26.8312C9.05626 27.1844 9.76876 27.2656 10.2594 27.2781C10.2594 27.2781 12.1813 29.9375 17.2063 29.9375H22.8C27.825 29.9375 29.7469 27.2781 29.7469 27.2781C30.2375 27.2656 30.95 27.1844 31.5281 26.8312C32.1531 26.45 32.4125 25.7437 32.4125 25.7437C32.4125 25.7437 31.2844 25.6437 30.9063 24.9531Z" fill="#312D2D"/>
<path d="M19.9968 29.9343V26.9843L28.925 26.2781L29.7375 27.2781C29.7375 27.2781 27.8156 29.9375 22.7906 29.9375L19.9968 29.9343Z" fill="url(#paint14_radial_619_705)"/>
<path d="M29.7188 25.9875C28.3813 23.9563 31.347 23.1969 31.347 23.1969L31.3501 23.2C30.8345 23.8406 30.6001 24.4 30.9032 24.9531C31.2813 25.6438 32.4063 25.7438 32.4063 25.7438C32.4063 25.7438 30.872 27.1063 29.7188 25.9875Z" fill="url(#paint15_radial_619_705)"/>
<path d="M33.3188 14.5781C34.6469 17.8125 33.25 21.1437 31.9407 22.55C31.7625 22.7437 31 23.4906 30.825 24.0875C30.825 24.0875 27.8438 19.9281 26.9532 17.4843C26.775 16.9906 26.6094 16.4843 26.5875 15.9593C26.5719 15.5656 26.6313 15.0968 26.8594 14.7625C27.1375 14.3531 33.1594 14.2312 33.1594 14.2312C33.1594 14.2343 33.3188 14.5781 33.3188 14.5781Z" fill="url(#paint16_radial_619_705)"/>
<path d="M6.68756 14.5782C5.36256 17.8125 6.75944 21.1438 8.06569 22.5469C8.24694 22.7407 9.00631 23.4875 9.18131 24.0844C9.18131 24.0844 12.1626 19.925 13.0532 17.4813C13.2344 16.9875 13.3969 16.4813 13.4188 15.9563C13.4344 15.5625 13.3751 15.0938 13.1469 14.7594C12.8688 14.35 12.5438 14.4594 12.0719 14.4594C11.1719 14.4594 7.23131 14.2281 6.92506 14.2281C6.92819 14.2344 6.68756 14.5782 6.68756 14.5782Z" fill="url(#paint17_radial_619_705)"/>
<path d="M20.0094 29.9343V26.9843L11.0813 26.2781L10.2688 27.2781C10.2688 27.2781 12.1907 29.9375 17.2157 29.9375L20.0094 29.9343Z" fill="url(#paint18_radial_619_705)"/>
<path d="M10.2876 25.9875C11.6251 23.9563 8.65947 23.1969 8.65947 23.1969L8.65635 23.2C9.17197 23.8406 9.40635 24.4 9.10322 24.9531C8.7251 25.6438 7.6001 25.7438 7.6001 25.7438C7.6001 25.7438 9.13447 27.1063 10.2876 25.9875Z" fill="url(#paint19_radial_619_705)"/>
<path d="M20.0437 30H20C11.9844 30.0094 3.75 32.2187 3.75 37.8094V38.7313H36.25V37.8094C36.25 32.5375 28.0937 30 20.0437 30Z" fill="url(#paint20_linear_619_705)"/>
<path d="M23.4437 28.5563H16.5562L14.4968 30.7813L17.4593 35.3719L20 32.2344L22.5406 35.3719L25.5031 30.7813L23.4437 28.5563Z" fill="url(#paint21_linear_619_705)"/>
<path d="M20.1813 34.8781H19.8407C19.4688 34.8781 19.147 34.6218 19.0595 34.2593L18.9282 33.7125C18.8095 33.2093 19.447 32.725 20.0282 32.725C20.6095 32.725 21.2032 33.2031 21.0876 33.7062L20.9626 34.2531C20.8813 34.6219 20.5563 34.8781 20.1813 34.8781Z" fill="#1565C0"/>
<path d="M16.2937 35.3531V32.4156C16.2937 32.05 16.6906 31.8187 17.0125 31.9969L19.6187 33.4437C19.9437 33.625 19.95 34.0906 19.625 34.275L17.0187 35.7687C16.6937 35.95 16.2937 35.7219 16.2937 35.3531ZM23.6 35.3531V32.4156C23.6 32.05 23.2031 31.8187 22.8812 31.9969L20.275 33.4437C19.95 33.625 19.9437 34.0906 20.2687 34.275L22.875 35.7687C23.1968 35.95 23.6 35.7219 23.6 35.3531Z" fill="#1565C0"/>
<path d="M20 26.3532H17.1625V29.4719C17.1625 30.8813 18.3188 32.025 19.7438 32.025H20.2594C21.6844 32.025 22.8407 30.8813 22.8407 29.4719V26.3532H20ZM28.5407 15.7594H11.4594C9.6188 15.7594 8.11255 17.3656 8.11255 19.325C8.11255 21.2844 9.6188 22.8906 11.4594 22.8906H28.5375C30.3782 22.8906 31.8844 21.2844 31.8844 19.325C31.8844 17.3656 30.3813 15.7594 28.5407 15.7594Z" fill="#EDC391"/>
<path d="M19.9999 3.45935C14.5624 3.45935 9.5249 9.27498 9.5249 17.6469C9.5249 25.9719 14.7155 30.0875 19.9999 30.0875C25.2843 30.0875 30.4749 25.9687 30.4749 17.6437C30.4749 9.27498 25.4374 3.45935 19.9999 3.45935Z" fill="#F9DDBD"/>
<path d="M17.1249 15.5688C16.8343 15.1844 16.1655 14.6282 14.8655 14.6282C13.5655 14.6282 12.8937 15.1875 12.6062 15.5688C12.478 15.7375 12.5093 15.9344 12.5999 16.0532C12.6812 16.1625 12.9249 16.2657 13.1937 16.175C13.4624 16.0844 13.9874 15.8125 14.8655 15.8063C15.7437 15.8125 16.2687 16.0844 16.5374 16.175C16.8062 16.2657 17.0499 16.1657 17.1312 16.0532C17.2187 15.9344 17.253 15.7375 17.1249 15.5688ZM27.3968 15.5688C27.1062 15.1844 26.4374 14.6282 25.1374 14.6282C23.8374 14.6282 23.1655 15.1875 22.878 15.5688C22.7499 15.7375 22.7812 15.9344 22.8718 16.0532C22.9531 16.1625 23.1968 16.2657 23.4655 16.175C23.7343 16.0844 24.2593 15.8125 25.1374 15.8063C26.0156 15.8125 26.5406 16.0844 26.8093 16.175C27.0781 16.2657 27.3218 16.1657 27.4031 16.0532C27.4906 15.9344 27.5249 15.7375 27.3968 15.5688Z" fill="#454140"/>
<path d="M14.8624 19.9719C15.7133 19.9719 16.403 19.2584 16.403 18.3782C16.403 17.498 15.7133 16.7844 14.8624 16.7844C14.0115 16.7844 13.3218 17.498 13.3218 18.3782C13.3218 19.2584 14.0115 19.9719 14.8624 19.9719Z" fill="#312D2D"/>
<path d="M25.1373 19.9719C25.9882 19.9719 26.6779 19.2584 26.6779 18.3782C26.6779 17.498 25.9882 16.7844 25.1373 16.7844C24.2864 16.7844 23.5967 17.498 23.5967 18.3782C23.5967 19.2584 24.2864 19.9719 25.1373 19.9719Z" fill="#312D2D"/>
<path d="M21.2063 21.2688C21.1719 21.2563 21.1407 21.2469 21.1063 21.2438H18.8938C18.8594 21.2469 18.8251 21.2563 18.7938 21.2688C18.5938 21.35 18.4844 21.5563 18.5782 21.7781C18.6719 22 19.1126 22.6188 20.0001 22.6188C20.8876 22.6188 21.3282 21.9969 21.4219 21.7781C21.5157 21.5563 21.4063 21.35 21.2063 21.2688Z" fill="#DBA689"/>
<path d="M22.6312 23.7937C21.6375 24.3844 18.3718 24.3844 17.3781 23.7937C16.8062 23.4531 16.2218 23.975 16.4593 24.4937C16.6937 25.0031 18.4718 26.1875 20.0125 26.1875C21.5531 26.1875 23.3093 25.0031 23.5437 24.4937C23.7781 23.975 23.2031 23.4531 22.6312 23.7937Z" fill="#444444"/>
<path d="M32.5219 7.84692C31.7594 6.6938 30.05 5.14692 28.5156 5.0438C28.2688 3.5688 26.6906 2.3188 25.1625 1.83442C21.0281 0.52505 18.3375 1.9938 16.8938 2.7813C16.5938 2.9438 14.6532 4.02192 13.2969 3.25005C12.4469 2.76567 12.4625 1.4563 12.4625 1.4563C12.4625 1.4563 9.80003 2.47192 10.7094 5.30005C9.79378 5.33755 8.59378 5.72505 7.9594 7.00942C7.20315 8.54067 7.4719 9.8188 7.69065 10.4313C6.90315 11.1 5.91253 12.5219 6.59065 14.3688C7.10315 15.7594 9.14378 16.4 9.14378 16.4C9.00003 18.9032 9.46565 20.4438 9.71253 21.0657C9.75628 21.175 9.9094 21.1657 9.93753 21.0532C10.2469 19.8125 11.3032 15.4907 11.1969 14.7375C11.1969 14.7375 14.7438 14.0344 18.125 11.5438C18.8125 11.0375 19.5594 10.6063 20.3531 10.2907C24.6 8.60005 25.4875 11.4844 25.4875 11.4844C25.4875 11.4844 28.4313 10.9188 29.3188 15.0063C29.6531 16.5375 29.8781 18.9907 30.0688 20.7063C30.0813 20.8282 30.2469 20.8532 30.2938 20.7407C30.5906 20.0594 31.1844 18.7094 31.325 17.3313C31.375 16.8469 32.6813 16.2063 33.2438 14.125C33.9969 11.35 33.075 8.6813 32.5219 7.84692Z" fill="#312D2D"/>
<path d="M31.3188 17.3438C31.3688 16.8594 32.6751 16.2188 33.2376 14.1375C33.297 13.9156 33.347 13.6906 33.3938 13.4656C33.8501 10.9375 33.0313 8.61565 32.522 7.8469C31.8157 6.78127 30.3032 5.38127 28.8688 5.09377C28.7438 5.07815 28.622 5.06252 28.5063 5.05627C28.5063 5.05627 28.6095 5.72815 28.3376 6.26252C27.9876 6.95627 27.272 7.1219 27.272 7.1219C31.0126 10.8656 30.747 13.9969 31.3188 17.3438Z" fill="url(#paint22_radial_619_705)"/>
<path d="M17.7968 2.3094C17.4531 2.47502 17.1531 2.64065 16.8906 2.78127C16.5906 2.94377 14.6499 4.0219 13.2937 3.25002C12.4593 2.77502 12.4593 1.50627 12.4593 1.46252C12.0749 1.95315 10.9124 5.45627 14.3124 5.69065C15.7781 5.79065 16.6812 4.51252 17.2187 3.43127C17.4124 3.03752 17.7156 2.46252 17.7968 2.3094Z" fill="url(#paint23_radial_619_705)"/>
<path d="M24.7376 1.70938C27.0251 2.32813 28.1407 3.49375 28.5126 5.04688C28.6219 5.50313 28.7532 9.75938 20.6282 4.92188C17.6063 3.12188 18.4313 1.99688 18.7844 1.86875C20.1657 1.36875 22.1751 1.01563 24.7376 1.70938Z" fill="url(#paint24_radial_619_705)"/>
<path d="M12.45 1.46255C12.4469 1.46567 12.4407 1.46567 12.4313 1.47192H12.4282C12.1375 1.5938 9.85316 2.65317 10.7063 5.30005L13.1375 5.69067C10.9844 3.50942 12.4594 1.4563 12.4594 1.4563C12.4594 1.4563 12.4532 1.45942 12.45 1.46255Z" fill="url(#paint25_radial_619_705)"/>
<path d="M12.2093 5.54067L10.7061 5.30005C10.6468 5.30005 10.4468 5.3188 10.3374 5.33442C9.49052 5.45317 8.49365 5.89067 7.95302 7.00942C7.37177 8.21567 7.3874 9.25005 7.54677 9.94067C7.59365 10.1719 7.6874 10.4344 7.6874 10.4344C7.6874 10.4344 8.43115 9.72817 10.203 9.6813L12.2093 5.54067Z" fill="url(#paint26_radial_619_705)"/>
<path d="M7.61561 10.4938C6.87498 11.15 5.87811 12.6156 6.61248 14.4344C7.16561 15.8063 9.14061 16.4 9.14061 16.4C9.14061 16.4063 9.53436 16.525 9.73748 16.525L10.2 9.68127C9.25311 9.68127 8.34373 9.96565 7.75623 10.375C7.76561 10.3844 7.61248 10.4844 7.61561 10.4938Z" fill="url(#paint27_radial_619_705)"/>
<defs>
<radialGradient id="paint0_radial_619_705" cx="0" cy="0" r="1" gradientUnits="userSpaceOnUse" gradientTransform="translate(39.5571 25.672) scale(7.31844 3.59482)">
<stop offset="0.728" stop-color="#BFA055" stop-opacity="0"/>
<stop offset="1" stop-color="#BFA055"/>
</radialGradient>
<radialGradient id="paint1_radial_619_705" cx="0" cy="0" r="1" gradientUnits="userSpaceOnUse" gradientTransform="translate(46.766 24.583) rotate(154.924) scale(2.1627 1.60442)">
<stop offset="0.663" stop-color="#BFA055"/>
<stop offset="1" stop-color="#BFA055" stop-opacity="0"/>
</radialGradient>
<radialGradient id="paint2_radial_619_705" cx="0" cy="0" r="1" gradientUnits="userSpaceOnUse" gradientTransform="translate(41.1609 18.466) rotate(-94.2783) scale(9.49956 7.91727)">
<stop offset="0.725" stop-color="#BFA055" stop-opacity="0"/>
<stop offset="1" stop-color="#BFA055"/>
</radialGradient>
<radialGradient id="paint3_radial_619_705" cx="0" cy="0" r="1" gradientUnits="userSpaceOnUse" gradientTransform="translate(28.8464 18.4659) rotate(-85.7217) scale(9.49956 7.91727)">
<stop offset="0.725" stop-color="#BFA055" stop-opacity="0"/>
<stop offset="1" stop-color="#BFA055"/>
</radialGradient>
<radialGradient id="paint4_radial_619_705" cx="0" cy="0" r="1" gradientUnits="userSpaceOnUse" gradientTransform="translate(30.4497 25.672) rotate(180) scale(7.31844 3.59482)">
<stop offset="0.728" stop-color="#BFA055" stop-opacity="0"/>
<stop offset="1" stop-color="#BFA055"/>
</radialGradient>
<radialGradient id="paint5_radial_619_705" cx="0" cy="0" r="1" gradientUnits="userSpaceOnUse" gradientTransform="translate(23.2416 24.5832) rotate(25.0761) scale(2.1627 1.60442)">
<stop offset="0.663" stop-color="#BFA055"/>
<stop offset="1" stop-color="#BFA055" stop-opacity="0"/>
</radialGradient>
<linearGradient id="paint6_linear_619_705" x1="35" y1="29.9025" x2="35" y2="38.6559" gradientUnits="userSpaceOnUse">
<stop offset="0.003" stop-color="#E3F2FD"/>
<stop offset="0.225" stop-color="#D6ECFC"/>
<stop offset="0.635" stop-color="#B4DBFB"/>
<stop offset="1" stop-color="#90CAF9"/>
</linearGradient>
<linearGradient id="paint7_linear_619_705" x1="35" y1="34.9003" x2="35" y2="29.2025" gradientUnits="userSpaceOnUse">
<stop offset="0.5" stop-color="#F5F5F5"/>
<stop offset="1" stop-color="#DADADA"/>
</linearGradient>
<radialGradient id="paint8_radial_619_705" cx="0" cy="0" r="1" gradientUnits="userSpaceOnUse" gradientTransform="translate(40.6304 13.4536) rotate(72.0851) scale(11.1351 8.26201)">
<stop offset="0.699" stop-color="#BFA055" stop-opacity="0"/>
<stop offset="1" stop-color="#BFA055"/>
</radialGradient>
<radialGradient id="paint9_radial_619_705" cx="0" cy="0" r="1" gradientUnits="userSpaceOnUse" gradientTransform="translate(29.7752 1.313) rotate(28.2026) scale(2.91975 3.46197)">
<stop offset="0.58" stop-color="#BFA055"/>
<stop offset="1" stop-color="#BFA055" stop-opacity="0"/>
</radialGradient>
<radialGradient id="paint10_radial_619_705" cx="0" cy="0" r="1" gradientUnits="userSpaceOnUse" gradientTransform="translate(36.3006 6.6154) rotate(-157.19) scale(9.13112 5.13172)">
<stop offset="0.699" stop-color="#BFA055" stop-opacity="0"/>
<stop offset="1" stop-color="#BFA055"/>
</radialGradient>
<radialGradient id="paint11_radial_619_705" cx="0" cy="0" r="1" gradientUnits="userSpaceOnUse" gradientTransform="translate(28.6028 3.97657) scale(2.67969 3.27806)">
<stop offset="0.702" stop-color="#BFA055" stop-opacity="0"/>
<stop offset="1" stop-color="#BFA055"/>
</radialGradient>
<radialGradient id="paint12_radial_619_705" cx="0" cy="0" r="1" gradientUnits="userSpaceOnUse" gradientTransform="translate(28.2336 8.70672) rotate(-164.942) scale(5.02612 4.70354)">
<stop offset="0.66" stop-color="#BFA055" stop-opacity="0"/>
<stop offset="1" stop-color="#BFA055"/>
</radialGradient>
<radialGradient id="paint13_radial_619_705" cx="0" cy="0" r="1" gradientUnits="userSpaceOnUse" gradientTransform="translate(27.0426 13.5597) rotate(7.83355) scale(5.27704 7.41512)">
<stop offset="0.598" stop-color="#BFA055" stop-opacity="0"/>
<stop offset="1" stop-color="#BFA055"/>
</radialGradient>
<radialGradient id="paint14_radial_619_705" cx="0" cy="0" r="1" gradientUnits="userSpaceOnUse" gradientTransform="translate(24.5571 25.672) scale(7.31844 3.59482)">
<stop offset="0.728" stop-color="#454140" stop-opacity="0"/>
<stop offset="1" stop-color="#454140"/>
</radialGradient>
<radialGradient id="paint15_radial_619_705" cx="0" cy="0" r="1" gradientUnits="userSpaceOnUse" gradientTransform="translate(31.766 24.583) rotate(154.924) scale(2.1627 1.60442)">
<stop offset="0.663" stop-color="#454140"/>
<stop offset="1" stop-color="#454140" stop-opacity="0"/>
</radialGradient>
<radialGradient id="paint16_radial_619_705" cx="0" cy="0" r="1" gradientUnits="userSpaceOnUse" gradientTransform="translate(26.1609 18.466) rotate(-94.2783) scale(9.49956 7.91727)">
<stop offset="0.725" stop-color="#454140" stop-opacity="0"/>
<stop offset="1" stop-color="#454140"/>
</radialGradient>
<radialGradient id="paint17_radial_619_705" cx="0" cy="0" r="1" gradientUnits="userSpaceOnUse" gradientTransform="translate(13.8464 18.4659) rotate(-85.7217) scale(9.49956 7.91727)">
<stop offset="0.725" stop-color="#454140" stop-opacity="0"/>
<stop offset="1" stop-color="#454140"/>
</radialGradient>
<radialGradient id="paint18_radial_619_705" cx="0" cy="0" r="1" gradientUnits="userSpaceOnUse" gradientTransform="translate(15.4497 25.672) rotate(180) scale(7.31844 3.59482)">
<stop offset="0.728" stop-color="#454140" stop-opacity="0"/>
<stop offset="1" stop-color="#454140"/>
</radialGradient>
<radialGradient id="paint19_radial_619_705" cx="0" cy="0" r="1" gradientUnits="userSpaceOnUse" gradientTransform="translate(8.24163 24.5832) rotate(25.0761) scale(2.1627 1.60442)">
<stop offset="0.663" stop-color="#454140"/>
<stop offset="1" stop-color="#454140" stop-opacity="0"/>
</radialGradient>
<linearGradient id="paint20_linear_619_705" x1="20" y1="29.9025" x2="20" y2="38.6559" gradientUnits="userSpaceOnUse">
<stop offset="0.003" stop-color="#E3F2FD"/>
<stop offset="0.225" stop-color="#D6ECFC"/>
<stop offset="0.635" stop-color="#B4DBFB"/>
<stop offset="1" stop-color="#90CAF9"/>
</linearGradient>
<linearGradient id="paint21_linear_619_705" x1="20" y1="34.9003" x2="20" y2="29.2025" gradientUnits="userSpaceOnUse">
<stop offset="0.5" stop-color="#F5F5F5"/>
<stop offset="1" stop-color="#DADADA"/>
</linearGradient>
<radialGradient id="paint22_radial_619_705" cx="0" cy="0" r="1" gradientUnits="userSpaceOnUse" gradientTransform="translate(25.6304 13.4536) rotate(72.0851) scale(11.1351 8.26201)">
<stop offset="0.699" stop-color="#454140" stop-opacity="0"/>
<stop offset="1" stop-color="#454140"/>
</radialGradient>
<radialGradient id="paint23_radial_619_705" cx="0" cy="0" r="1" gradientUnits="userSpaceOnUse" gradientTransform="translate(14.7752 1.313) rotate(28.2026) scale(2.91975 3.46197)">
<stop offset="0.58" stop-color="#454140"/>
<stop offset="1" stop-color="#454140" stop-opacity="0"/>
</radialGradient>
<radialGradient id="paint24_radial_619_705" cx="0" cy="0" r="1" gradientUnits="userSpaceOnUse" gradientTransform="translate(21.3006 6.6154) rotate(-157.19) scale(9.13112 5.13172)">
<stop offset="0.699" stop-color="#454140" stop-opacity="0"/>
<stop offset="1" stop-color="#454140"/>
</radialGradient>
<radialGradient id="paint25_radial_619_705" cx="0" cy="0" r="1" gradientUnits="userSpaceOnUse" gradientTransform="translate(13.6028 3.97657) scale(2.67969 3.27806)">
<stop offset="0.702" stop-color="#454140" stop-opacity="0"/>
<stop offset="1" stop-color="#454140"/>
</radialGradient>
<radialGradient id="paint26_radial_619_705" cx="0" cy="0" r="1" gradientUnits="userSpaceOnUse" gradientTransform="translate(13.2336 8.70672) rotate(-164.942) scale(5.02612 4.70354)">
<stop offset="0.66" stop-color="#454140" stop-opacity="0"/>
<stop offset="1" stop-color="#454140"/>
</radialGradient>
<radialGradient id="paint27_radial_619_705" cx="0" cy="0" r="1" gradientUnits="userSpaceOnUse" gradientTransform="translate(12.0426 13.5597) rotate(7.83355) scale(5.27704 7.41512)">
<stop offset="0.598" stop-color="#454140" stop-opacity="0"/>
<stop offset="1" stop-color="#454140"/>
</radialGradient>
</defs>
</svg>
