<svg width="24" height="24" viewBox="0 0 24 24" fill="none" xmlns="http://www.w3.org/2000/svg">
<path d="M12 12L9.04199 14.929C6.11999 17.823 4.65899 19.27 5.06799 20.519C5.10299 20.626 5.14599 20.73 5.19799 20.831C5.79999 22 7.86699 22 12 22C16.133 22 18.2 22 18.802 20.83C18.854 20.73 18.897 20.626 18.932 20.519C19.342 19.27 17.88 17.823 14.958 14.929L12 12ZM12 12L14.958 9.071C17.88 6.177 19.341 4.73 18.932 3.481C18.897 3.37371 18.8536 3.26937 18.802 3.169C18.2 2 16.133 2 12 2C7.86699 2 5.79999 2 5.19799 3.17C5.14599 3.27 5.10299 3.374 5.06799 3.481C4.65799 4.73 6.11999 6.177 9.04199 9.071L12 12Z" stroke="rgb(180 83 9)" stroke-width="1.5"/>
</svg>
