<svg width="24" height="24" viewBox="0 0 24 24" fill="none" xmlns="http://www.w3.org/2000/svg">
<path fill-rule="evenodd" clip-rule="evenodd" d="M9.42653 4.55804C5.66153 6.97604 3.57003 9.79004 3.15153 13.0015C2.50003 18 6.97003 20.4465 9.23503 18.2485C11.5 16.05 10.1425 13.26 8.50253 12.497C6.86253 11.7345 5.85953 12 6.03453 10.9805C6.20953 9.96153 8.54253 7.13554 10.5925 5.81954C10.6652 5.75776 10.7115 5.6706 10.7221 5.57583C10.7327 5.48106 10.7067 5.38582 10.6495 5.30954L10.1425 4.65004C9.92253 4.36404 9.71153 4.37503 9.42653 4.55753M19.3395 4.55804C15.5745 6.97604 13.4825 9.79054 13.0645 13.0015C12.413 18 16.883 20.4465 19.148 18.2485C21.413 16.05 20.0555 13.26 18.415 12.497C16.775 11.7345 15.772 12 15.947 10.9805C16.122 9.96153 18.4555 7.13554 20.5055 5.81954C20.5781 5.75769 20.6243 5.6705 20.6348 5.57573C20.6453 5.48097 20.6193 5.38576 20.562 5.30954L20.055 4.65004C19.835 4.36404 19.624 4.37503 19.3395 4.55753" fill="rgb(180 83 9)"/>
</svg>
